<svg width="383" height="231" viewBox="0 0 383 231" fill="none" xmlns="http://www.w3.org/2000/svg">
<path d="M345.284 107.393L344.026 109.327C341.818 112.73 343.204 117.148 347.125 119.223C351.06 121.3 356.063 120.225 358.29 116.811L359.561 114.864C361.792 111.444 360.383 106.999 356.424 104.939C352.479 102.881 347.494 103.99 345.284 107.393Z" fill="#111212"/>
<path d="M307.084 112.659C310.102 128.539 322.404 140.321 334.647 138.902C346.998 137.468 354.516 123.181 351.353 107.057C348.204 91.0092 335.688 79.4152 323.483 81.0867C311.383 82.7492 304.08 96.8486 307.084 112.659Z" fill="white"/>
<path d="M305.633 113.004C308.944 130.442 319.508 143.737 329.278 142.616C339.116 141.487 344.345 126.198 340.908 108.549C337.486 90.9851 326.803 77.8967 317.091 79.2368C307.448 80.568 302.338 95.6507 305.633 113.004Z" fill="#1B1C20"/>
<path d="M353.157 107.51L370.877 69.0023L375.365 70.3501L356.485 113.099L353.157 107.51Z" fill="#111212"/>
<path d="M356.22 118.912C356.228 119.649 355.61 120.232 354.839 120.214C354.066 120.202 353.434 119.587 353.425 118.85C353.415 118.12 354.032 117.537 354.805 117.548C355.576 117.567 356.211 118.175 356.22 118.912Z" fill="#EE252B"/>
<path d="M48.0321 102.339L49.037 104.104C50.8007 107.208 49.7069 111.106 46.595 112.815C43.4909 114.519 39.5611 113.385 37.8152 110.292L36.8204 108.529C35.0796 105.444 36.1641 101.567 39.2488 99.8521C42.3393 98.1387 46.272 99.2504 48.0321 102.339Z" fill="#111212"/>
<path d="M79.2223 108.282C76.7315 122.687 66.5803 132.822 56.6266 130.928C46.753 129.058 40.7978 116.058 43.2519 101.868C45.7059 87.6791 55.6678 77.514 65.5773 79.1688C75.5698 80.8399 81.7137 93.8773 79.2223 108.282Z" fill="white"/>
<path d="M80.4286 108.655C77.6917 124.482 68.9554 136.07 60.9652 134.542C53.0278 133.032 48.8239 119.138 51.5291 103.498C54.2321 87.8656 62.8469 76.2534 70.8167 77.5767C78.8401 78.9105 83.1655 92.8286 80.4286 108.655Z" fill="#1B1C20"/>
<path d="M41.8133 102.221L27.9877 68.0003L24.5595 69.1569L39.217 107.063L41.8133 102.221Z" fill="#111212"/>
<path d="M39.4428 112.219C39.4386 112.864 39.9227 113.405 40.5272 113.421C41.133 113.429 41.627 112.918 41.6334 112.266C41.6384 111.613 41.1535 111.072 40.5477 111.063C39.9439 111.048 39.4493 111.566 39.4428 112.219Z" fill="#EE252B"/>
<path d="M312.818 45.0297C307.066 21.3487 286.767 11.2076 260.523 9.5497C250.948 8.93995 219.208 9.02764 187.998 9.5694C157.528 10.2574 127.985 11.3719 119.346 12.2911C96.2806 14.7543 79.0462 24.7032 74.298 46.4375C69.7219 67.3858 49.0584 144.403 64.0646 181.728C78.8512 218.51 153.17 223.324 188.252 225.568C224.32 227.87 307.824 233.157 325.613 194.631C344.134 154.518 318.403 68.0326 312.818 45.0297Z" fill="white"/>
<path d="M295.048 55.2505C290.169 34.9 272.849 26.094 250.394 24.536C242.183 23.9681 214.909 23.89 188.002 24.1988C161.647 24.6466 136.013 25.4618 128.502 26.2222C108.411 28.253 93.3792 36.8153 89.2496 55.6916C85.2705 73.8792 67.2772 140.785 80.4395 173.155C93.3796 204.979 157.93 208.782 188.222 210.542C219.245 212.342 290.613 216.445 305.778 183.411C321.546 149.066 299.78 75.0032 295.048 55.2505Z" fill="#0E0F0E"/>
<path d="M289.926 58.2014C285.297 38.8086 268.833 30.3955 247.467 28.8769C239.652 28.3232 213.671 28.2029 188.015 28.4598C162.86 28.8456 138.375 29.5798 131.192 30.299C111.983 32.203 97.5988 40.3683 93.6519 58.401C89.8484 75.7838 72.6413 139.718 85.2553 170.633C97.6486 201.005 159.33 204.531 188.227 206.16C217.786 207.83 285.665 211.613 300.077 180.168C315.057 147.486 294.415 77.0076 289.926 58.2014Z" fill="#1B1C20"/>
<path d="M143.627 155.814V142.114H106.027V134.114L140.027 85.1137H154.127V132.514H162.327V142.114H154.127V155.814H143.627ZM118.527 132.514H143.627V95.6137L118.527 132.514ZM193.805 156.614C188.739 156.614 184.439 155.714 180.905 153.914C177.372 152.047 174.505 149.48 172.305 146.214C170.105 142.88 168.472 139.047 167.405 134.714C166.405 130.314 165.905 125.58 165.905 120.514C165.905 115.447 166.405 110.747 167.405 106.414C168.405 102.014 170.005 98.1804 172.205 94.9137C174.472 91.5804 177.372 88.9804 180.905 87.1137C184.505 85.2471 188.805 84.3137 193.805 84.3137C199.139 84.3137 203.572 85.3137 207.105 87.3137C210.705 89.3137 213.572 92.0471 215.705 95.5137C217.905 98.9137 219.439 102.78 220.305 107.114C221.239 111.447 221.705 115.914 221.705 120.514C221.705 125.114 221.239 129.58 220.305 133.914C219.372 138.247 217.839 142.114 215.705 145.514C213.572 148.914 210.705 151.614 207.105 153.614C203.505 155.614 199.072 156.614 193.805 156.614ZM193.805 146.914C197.472 146.914 200.439 146.114 202.705 144.514C204.972 142.847 206.705 140.68 207.905 138.014C209.105 135.347 209.905 132.48 210.305 129.414C210.772 126.347 211.005 123.38 211.005 120.514C211.005 117.714 210.772 114.78 210.305 111.714C209.905 108.58 209.105 105.68 207.905 103.014C206.705 100.347 204.972 98.1804 202.705 96.5137C200.505 94.8471 197.572 94.0137 193.905 94.0137C190.172 94.0137 187.139 94.8471 184.805 96.5137C182.539 98.1804 180.805 100.347 179.605 103.014C178.405 105.68 177.605 108.547 177.205 111.614C176.805 114.68 176.605 117.647 176.605 120.514C176.605 123.38 176.805 126.347 177.205 129.414C177.605 132.48 178.372 135.347 179.505 138.014C180.705 140.68 182.439 142.847 184.705 144.514C187.039 146.114 190.072 146.914 193.805 146.914ZM263.314 155.814V142.114H225.714V134.114L259.714 85.1137H273.814V132.514H282.014V142.114H273.814V155.814H263.314ZM238.214 132.514H263.314V95.6137L238.214 132.514Z" fill="white"/>
</svg>
