<svg width="16" height="16" viewBox="0 0 16 16" fill="none" xmlns="http://www.w3.org/2000/svg">
<path d="M10.3541 12.6462C10.4006 12.6927 10.4374 12.7478 10.4626 12.8085C10.4877 12.8692 10.5007 12.9343 10.5007 13C10.5007 13.0657 10.4877 13.1307 10.4626 13.1914C10.4374 13.2521 10.4006 13.3073 10.3541 13.3537C10.3077 13.4002 10.2525 13.437 10.1918 13.4622C10.1311 13.4873 10.0661 13.5003 10.0004 13.5003C9.9347 13.5003 9.86964 13.4873 9.80895 13.4622C9.74825 13.437 9.6931 13.4002 9.64664 13.3537L4.64664 8.35372C4.60015 8.30729 4.56328 8.25214 4.53811 8.19144C4.51295 8.13074 4.5 8.06568 4.5 7.99997C4.5 7.93427 4.51295 7.8692 4.53811 7.8085C4.56328 7.7478 4.60015 7.69266 4.64664 7.64622L9.64664 2.64622C9.74046 2.5524 9.86771 2.49969 10.0004 2.49969C10.1331 2.49969 10.2603 2.5524 10.3541 2.64622C10.448 2.74004 10.5007 2.86729 10.5007 2.99997C10.5007 3.13265 10.448 3.2599 10.3541 3.35372L5.70727 7.99997L10.3541 12.6462Z" fill="#252B37"/>
</svg>
