<svg width="16" height="17" viewBox="0 0 16 17" fill="none" xmlns="http://www.w3.org/2000/svg">
<g id="calendar">
<path id="Vector" d="M1.33594 8.1097C1.33594 5.59554 1.33594 4.33846 2.11699 3.55742C2.89803 2.77637 4.15511 2.77637 6.66927 2.77637H9.33594C11.8501 2.77637 13.1072 2.77637 13.8882 3.55742C14.6693 4.33846 14.6693 5.59554 14.6693 8.1097V9.44303C14.6693 11.9572 14.6693 13.2143 13.8882 13.9953C13.1072 14.7764 11.8501 14.7764 9.33594 14.7764H6.66927C4.15511 14.7764 2.89803 14.7764 2.11699 13.9953C1.33594 13.2143 1.33594 11.9572 1.33594 9.44303V8.1097Z" stroke="#717680"/>
<path id="Vector_2" d="M4.66406 2.77637V1.77637" stroke="#717680" stroke-linecap="round"/>
<path id="Vector_3" d="M11.3359 2.77637V1.77637" stroke="#717680" stroke-linecap="round"/>
<circle id="Vector_4" cx="11" cy="11.1099" r="1" stroke="#717680"/>
<path id="Vector_5" d="M1.66406 6.10986H14.3307" stroke="#717680" stroke-linecap="round"/>
</g>
</svg>
