<svg width="48" height="48" viewBox="0 0 48 48" fill="none" xmlns="http://www.w3.org/2000/svg">
<g id="Presentation-Graph--Streamline-Solar-Broken">
<path id="Vector" d="M4.83594 4.83331H43.1693" stroke="white" stroke-width="2" stroke-linecap="round"/>
<path id="Vector_2" d="M18.25 21.125L20.7281 18.647C21.3669 18.0081 21.6864 17.6886 22.0833 17.6886C22.4803 17.6886 22.7998 18.0081 23.4386 18.647L24.5614 19.7697C25.2002 20.4086 25.5197 20.7281 25.9167 20.7281C26.3136 20.7281 26.6331 20.4086 27.2719 19.7697L29.75 17.2917" stroke="white" stroke-width="2" stroke-linecap="round"/>
<path id="Vector_3" d="M24 41.25V33.5833" stroke="white" stroke-width="2" stroke-linecap="round"/>
<path id="Vector_4" d="M20.1641 43.1667L23.9974 41.25" stroke="white" stroke-width="2" stroke-linecap="round"/>
<path id="Vector_5" d="M27.8333 43.1667L24 41.25" stroke="white" stroke-width="2" stroke-linecap="round"/>
<path id="Vector_6" d="M8.66406 4.83331V21.125C8.66406 26.9978 8.66406 29.9344 10.5888 31.7588C12.5135 33.5833 15.6113 33.5833 21.8068 33.5833H26.188C32.3834 33.5833 35.4813 33.5833 37.406 31.7588C39.3307 29.9344 39.3307 26.9978 39.3307 21.125V20.1666M39.3307 4.83331V12.5" stroke="white" stroke-width="2" stroke-linecap="round"/>
</g>
</svg>
