<svg width="16" height="16" viewBox="0 0 16 16" fill="none" xmlns="http://www.w3.org/2000/svg">
<path d="M14.354 8.35378L9.35403 13.3538C9.30757 13.4002 9.25242 13.4371 9.19173 13.4622C9.13103 13.4874 9.06598 13.5003 9.00028 13.5003C8.93458 13.5003 8.86953 13.4874 8.80883 13.4622C8.74813 13.4371 8.69298 13.4002 8.64653 13.3538C8.60007 13.3073 8.56322 13.2522 8.53808 13.1915C8.51294 13.1308 8.5 13.0657 8.5 13C8.5 12.9343 8.51294 12.8693 8.53808 12.8086C8.56322 12.7479 8.60007 12.6927 8.64653 12.6463L13.2934 8.00003L8.64653 3.35378C8.55271 3.25996 8.5 3.13272 8.5 3.00003C8.5 2.86735 8.55271 2.7401 8.64653 2.64628C8.74035 2.55246 8.8676 2.49976 9.00028 2.49976C9.13296 2.49976 9.26021 2.55246 9.35403 2.64628L14.354 7.64628C14.4005 7.69272 14.4374 7.74786 14.4626 7.80856C14.4877 7.86926 14.5007 7.93433 14.5007 8.00003C14.5007 8.06574 14.4877 8.13081 14.4626 8.1915C14.4374 8.2522 14.4005 8.30735 14.354 8.35378Z" fill="#252B37"/>
<path d="M9.35403 8.35378L4.35403 13.3538C4.30757 13.4002 4.25242 13.4371 4.19173 13.4622C4.13103 13.4874 4.06598 13.5003 4.00028 13.5003C3.93458 13.5003 3.86953 13.4874 3.80883 13.4622C3.74813 13.4371 3.69298 13.4002 3.64653 13.3538C3.60007 13.3073 3.56322 13.2522 3.53808 13.1915C3.51294 13.1308 3.5 13.0657 3.5 13C3.5 12.9343 3.51294 12.8693 3.53808 12.8086C3.56322 12.7479 3.60007 12.6927 3.64653 12.6463L8.2934 8.00003L3.64653 3.35378C3.55271 3.25996 3.5 3.13272 3.5 3.00003C3.5 2.86735 3.55271 2.7401 3.64653 2.64628C3.74035 2.55246 3.8676 2.49976 4.00028 2.49976C4.13296 2.49976 4.26021 2.55246 4.35403 2.64628L9.35403 7.64628C9.40052 7.69272 9.4374 7.74786 9.46256 7.80856C9.48772 7.86926 9.50067 7.93433 9.50067 8.00003C9.50067 8.06574 9.48772 8.13081 9.46256 8.1915C9.4374 8.2522 9.40052 8.30735 9.35403 8.35378Z" fill="#252B37"/>
</svg>
