<svg width="16" height="16" viewBox="0 0 16 16" fill="none" xmlns="http://www.w3.org/2000/svg">
<path d="M9.35414 12.6463C9.4006 12.6927 9.43745 12.7479 9.46259 12.8086C9.48773 12.8693 9.50067 12.9343 9.50067 13C9.50067 13.0657 9.48773 13.1308 9.46259 13.1915C9.43745 13.2522 9.4006 13.3073 9.35414 13.3538C9.30769 13.4002 9.25254 13.4371 9.19184 13.4622C9.13115 13.4874 9.06609 13.5003 9.00039 13.5003C8.9347 13.5003 8.86964 13.4874 8.80895 13.4622C8.74825 13.4371 8.6931 13.4002 8.64664 13.3538L3.64664 8.35378C3.60015 8.30735 3.56328 8.2522 3.53811 8.1915C3.51295 8.13081 3.5 8.06574 3.5 8.00003C3.5 7.93433 3.51295 7.86926 3.53811 7.80856C3.56328 7.74786 3.60015 7.69272 3.64664 7.64628L8.64664 2.64628C8.74046 2.55246 8.86771 2.49976 9.00039 2.49976C9.13308 2.49976 9.26032 2.55246 9.35414 2.64628C9.44796 2.7401 9.50067 2.86735 9.50067 3.00003C9.50067 3.13272 9.44796 3.25996 9.35414 3.35378L4.70727 8.00003L9.35414 12.6463Z" fill="#252B37"/>
<path d="M13.3541 12.6463C13.4006 12.6927 13.4374 12.7479 13.4626 12.8086C13.4877 12.8693 13.5007 12.9343 13.5007 13C13.5007 13.0657 13.4877 13.1308 13.4626 13.1915C13.4374 13.2522 13.4006 13.3073 13.3541 13.3538C13.3077 13.4002 13.2525 13.4371 13.1918 13.4622C13.1311 13.4874 13.0661 13.5003 13.0004 13.5003C12.9347 13.5003 12.8696 13.4874 12.8089 13.4622C12.7482 13.4371 12.6931 13.4002 12.6466 13.3538L7.64664 8.35378C7.60015 8.30735 7.56328 8.2522 7.53811 8.1915C7.51295 8.13081 7.5 8.06574 7.5 8.00003C7.5 7.93433 7.51295 7.86926 7.53811 7.80856C7.56328 7.74786 7.60015 7.69272 7.64664 7.64628L12.6466 2.64628C12.7405 2.55246 12.8677 2.49976 13.0004 2.49976C13.1331 2.49976 13.2603 2.55246 13.3541 2.64628C13.448 2.7401 13.5007 2.86735 13.5007 3.00003C13.5007 3.13272 13.448 3.25996 13.3541 3.35378L8.70727 8.00003L13.3541 12.6463Z" fill="#252B37"/>
</svg>
