<svg width="48" height="48" viewBox="0 0 48 48" fill="none" xmlns="http://www.w3.org/2000/svg">
<g id="Shop-2--Streamline-Solar-Broken">
<path id="Vector" d="M19 43V37C19 35.1308 19 34.1962 19.4019 33.5C19.6652 33.044 20.044 32.6652 20.5 32.402C21.1962 32 22.1308 32 24 32C25.8692 32 26.8038 32 27.5 32.402C27.956 32.6652 28.3348 33.044 28.598 33.5C29 34.1962 29 35.1308 29 37V43" stroke="white" stroke-width="1.5" stroke-linecap="round"/>
<path id="Vector_2" d="M42 44H18M6 44H11" stroke="white" stroke-width="1.5" stroke-linecap="round"/>
<path id="Vector_3" d="M38 44V30" stroke="white" stroke-width="1.5" stroke-linecap="round"/>
<path id="Vector_4" d="M10 44V30" stroke="white" stroke-width="1.5" stroke-linecap="round"/>
<path id="Vector_5" d="M23.9995 4H14.944C12.5384 4 11.3356 4 10.369 4.5974C9.40234 5.1948 8.86442 6.27062 7.7886 8.42228L4.98136 15.5186C4.33278 17.1581 3.76532 19.0905 4.85708 20.475C5.58952 21.4038 6.72488 22 7.99956 22C10.2087 22 11.9996 20.2092 11.9996 18C11.9996 20.2092 13.7904 22 15.9996 22C18.2087 22 19.9996 20.2092 19.9996 18C19.9996 20.2092 21.7903 22 23.9995 22C26.2087 22 27.9995 20.2092 27.9995 18C27.9995 20.2092 29.7903 22 31.9995 22C34.2087 22 35.9995 20.2092 35.9995 18C35.9995 20.2092 37.7903 22 39.9995 22C41.2743 22 42.4097 21.4038 43.1421 20.475C44.2339 19.0905 43.6665 17.1581 43.0179 15.5186L40.2107 8.42228C39.1349 6.27062 38.5969 5.1948 37.6303 4.5974C36.6637 4 35.4609 4 33.0553 4H31.9997" stroke="white" stroke-width="1.5" stroke-linecap="round" stroke-linejoin="round"/>
</g>
</svg>
