<svg width="52" height="52" viewBox="0 0 52 52" fill="none" xmlns="http://www.w3.org/2000/svg">
<path d="M6.75246 17.8358L6.948 19.0705H6.94801L6.75246 17.8358ZM17.8358 6.75246L19.0705 6.948L17.8358 6.75246ZM44.5038 47.4536L43.7691 46.4423L44.5038 47.4536ZM47.4536 44.5038L46.4423 43.7691L47.4536 44.5038ZM4.54644 44.5038L5.55771 43.7691L4.54644 44.5038ZM7.4962 47.4536L8.23093 46.4423L7.4962 47.4536ZM7.4962 4.54644L6.76147 3.53517L7.4962 4.54644ZM4.54644 7.4962L3.53517 6.76147L4.54644 7.4962ZM44.5038 4.54644L43.7691 5.55771L44.5038 4.54644ZM47.4536 7.4962L46.4423 8.23093L47.4536 7.4962ZM18 2.07714L17.9572 0.827875L18 2.07714ZM2.07714 18L0.827876 17.9572L2.07714 18ZM28.6667 35.4167C27.9763 35.4167 27.4167 35.9763 27.4167 36.6667C27.4167 37.357 27.9763 37.9167 28.6667 37.9167V36.6667V35.4167ZM36.6667 37.9167C37.357 37.9167 37.9167 37.357 37.9167 36.6667C37.9167 35.9763 37.357 35.4167 36.6667 35.4167V36.6667V37.9167ZM15.3333 24.75C14.643 24.75 14.0833 25.3096 14.0833 26C14.0833 26.6904 14.643 27.25 15.3333 27.25V26V24.75ZM36.6667 27.25C37.357 27.25 37.9167 26.6904 37.9167 26C37.9167 25.3096 37.357 24.75 36.6667 24.75V26V27.25ZM28.6667 14.0833C27.9763 14.0833 27.4167 14.643 27.4167 15.3333C27.4167 16.0237 27.9763 16.5833 28.6667 16.5833V15.3333V14.0833ZM36.6667 16.5833C37.357 16.5833 37.9167 16.0237 37.9167 15.3333C37.9167 14.643 37.357 14.0833 36.6667 14.0833V15.3333V16.5833ZM6.75246 17.8358L6.94801 19.0705C13.1881 18.0821 18.0821 13.1881 19.0705 6.948L17.8358 6.75246L16.6012 6.55692C15.7823 11.7273 11.7273 15.7823 6.55692 16.6012L6.75246 17.8358ZM26 50V51.25C30.9718 51.25 34.8011 51.2517 37.8219 50.9244C40.8662 50.5946 43.2375 49.9187 45.2385 48.4648L44.5038 47.4536L43.7691 46.4423C42.2652 47.5349 40.3842 48.1322 37.5527 48.439C34.6977 48.7483 31.0275 48.75 26 48.75V50ZM50 26H48.75C48.75 31.0275 48.7483 34.6977 48.439 37.5527C48.1322 40.3842 47.5349 42.2652 46.4423 43.7691L47.4536 44.5038L48.4648 45.2385C49.9187 43.2375 50.5946 40.8662 50.9244 37.8219C51.2517 34.8011 51.25 30.9718 51.25 26H50ZM44.5038 47.4536L45.2385 48.4648C46.4766 47.5653 47.5653 46.4766 48.4648 45.2385L47.4536 44.5038L46.4423 43.7691C45.697 44.7949 44.7949 45.697 43.7691 46.4423L44.5038 47.4536ZM2 26H0.75C0.75 30.9718 0.748284 34.8011 1.07558 37.8219C1.4054 40.8662 2.08133 43.2375 3.53517 45.2385L4.54644 44.5038L5.55771 43.7691C4.46511 42.2652 3.86781 40.3842 3.56103 37.5527C3.25172 34.6977 3.25 31.0275 3.25 26H2ZM26 50V48.75C20.9725 48.75 17.3023 48.7483 14.4473 48.439C11.6158 48.1322 9.73477 47.5349 8.23093 46.4423L7.4962 47.4536L6.76147 48.4648C8.7625 49.9187 11.1338 50.5946 14.1781 50.9244C17.1989 51.2517 21.0282 51.25 26 51.25V50ZM4.54644 44.5038L3.53517 45.2385C4.43466 46.4766 5.52342 47.5653 6.76147 48.4648L7.4962 47.4536L8.23093 46.4423C7.20512 45.697 6.303 44.7949 5.55771 43.7691L4.54644 44.5038ZM7.4962 4.54644L6.76147 3.53517C5.52342 4.43466 4.43466 5.52342 3.53517 6.76147L4.54644 7.4962L5.55771 8.23093C6.303 7.20512 7.20512 6.30301 8.23093 5.55771L7.4962 4.54644ZM26 2V3.25C31.0275 3.25 34.6977 3.25172 37.5527 3.56103C40.3842 3.86781 42.2652 4.46511 43.7691 5.55771L44.5038 4.54644L45.2385 3.53517C43.2375 2.08133 40.8662 1.40541 37.8219 1.07558C34.8011 0.748284 30.9718 0.75 26 0.75V2ZM50 26H51.25C51.25 21.0282 51.2517 17.1989 50.9244 14.1781C50.5946 11.1338 49.9187 8.7625 48.4648 6.76147L47.4536 7.4962L46.4423 8.23093C47.5349 9.73477 48.1322 11.6158 48.439 14.4473C48.7483 17.3023 48.75 20.9725 48.75 26H50ZM44.5038 4.54644L43.7691 5.55771C44.7949 6.30301 45.697 7.20512 46.4423 8.23093L47.4536 7.4962L48.4648 6.76147C47.5653 5.52342 46.4766 4.43466 45.2385 3.53517L44.5038 4.54644ZM26 2V0.75C22.8898 0.75 20.2348 0.749843 17.9572 0.827875L18 2.07714L18.0428 3.32641C20.2684 3.25016 22.8759 3.25 26 3.25V2ZM18 2.07714L17.9572 0.827875C12.9706 0.998723 9.50551 1.54151 6.76147 3.53517L7.4962 4.54644L8.23093 5.55771C10.3114 4.04613 13.0871 3.4962 18.0428 3.32641L18 2.07714ZM18 2.07714L16.75 2.07713C16.75 4.54898 16.7445 5.65253 16.6012 6.55692L17.8358 6.75246L19.0705 6.948C19.2521 5.80114 19.25 4.45737 19.25 2.07715L18 2.07714ZM2 26H3.25C3.25 22.8759 3.25016 20.2684 3.32641 18.0428L2.07714 18L0.827876 17.9572C0.749845 20.2348 0.75 22.8898 0.75 26H2ZM2.07714 18L3.32641 18.0428C3.4962 13.0871 4.04612 10.3114 5.55771 8.23093L4.54644 7.4962L3.53517 6.76147C1.54151 9.5055 0.998723 12.9706 0.827876 17.9572L2.07714 18ZM2.07714 18L2.07715 19.25C4.45737 19.25 5.80114 19.2521 6.948 19.0705L6.75246 17.8358L6.55692 16.6012C5.65253 16.7445 4.54899 16.75 2.07713 16.75L2.07714 18ZM28.6667 36.6667V37.9167H36.6667V36.6667V35.4167H28.6667V36.6667ZM15.3333 26V27.25H36.6667V26V24.75H15.3333V26ZM28.6667 15.3333V16.5833H36.6667V15.3333V14.0833H28.6667V15.3333Z" fill="#F0532D"/>
</svg>
