<svg width="42" height="66" viewBox="0 0 42 66" fill="none" xmlns="http://www.w3.org/2000/svg">
<g id="Symbol.svg" clip-path="url(#clip0_248_17478)">
<path id="Vector" d="M21 33.1098C21 27.1877 25.6531 22.3867 31.3931 22.3867C37.133 22.3867 41.7862 27.1877 41.7862 33.1098C41.7862 39.032 37.133 43.8328 31.3931 43.8328C25.6531 43.8328 21 39.032 21 33.1098Z" fill="#1ABCFE"/>
<path id="Vector_2" d="M0.210938 54.5561C0.210938 48.634 4.86408 43.833 10.604 43.833H20.9971V54.5561C20.9971 60.4783 16.344 65.2791 10.604 65.2791C4.86408 65.2791 0.210938 60.4783 0.210938 54.5561Z" fill="#0ACF83"/>
<path id="Vector_3" d="M21 0.940918V22.3869H31.3931C37.1331 22.3869 41.7862 17.5861 41.7862 11.664C41.7862 5.74179 37.1331 0.940918 31.3931 0.940918H21Z" fill="#FF7262"/>
<path id="Vector_4" d="M0.210938 11.664C0.210938 17.5861 4.86408 22.3869 10.604 22.3869H20.9971V0.940918H10.604C4.86408 0.940918 0.210938 5.74178 0.210938 11.664Z" fill="#F24E1E"/>
<path id="Vector_5" d="M0.210938 33.1098C0.210938 39.032 4.86408 43.8328 10.604 43.8328H20.9971V22.3867H10.604C4.86408 22.3867 0.210938 27.1877 0.210938 33.1098Z" fill="#A259FF"/>
</g>
<defs>
<clipPath id="clip0_248_17478">
<rect width="42" height="65" fill="white" transform="translate(0 0.609863)"/>
</clipPath>
</defs>
</svg>
