<svg width="48" height="48" viewBox="0 0 48 48" fill="none" xmlns="http://www.w3.org/2000/svg">
<g id="Magic-Stick-3--Streamline-Solar-Broken">
<path id="Vector" d="M25.875 18.2292L16.3542 8.70849C14.2429 6.59717 10.8198 6.59717 8.70849 8.70849C6.59717 10.8198 6.59717 14.2429 8.70849 16.3542L31.6457 39.2916C33.7571 41.4028 37.1801 41.4028 39.2916 39.2916C41.4028 37.1801 41.4028 33.7571 39.2916 31.6457L33.5207 25.875" stroke="white" stroke-width="2" stroke-linecap="round"/>
<path id="Vector_2" d="M12.75 20.25L20.25 12.75" stroke="white" stroke-width="2" stroke-linecap="round"/>
<path id="Vector_3" d="M31.6875 5.82599C31.9893 5.058 33.0721 5.058 33.3738 5.82599L34.1808 7.87964C34.2731 8.1141 34.458 8.29971 34.6916 8.39219L36.7376 9.20213C37.5028 9.50502 37.5028 10.5919 36.7376 10.8948L34.6916 11.7047C34.458 11.7972 34.2731 11.9828 34.1808 12.2173L33.374 14.2709C33.0721 15.0389 31.9893 15.0389 31.6875 14.2709L30.8806 12.2173C30.7884 11.9828 30.6035 11.7972 30.3699 11.7047L28.3239 10.8948C27.5587 10.5919 27.5587 9.50502 28.3239 9.20213L30.3699 8.39219C30.6035 8.29971 30.7884 8.1141 30.8806 7.87964L31.6875 5.82599Z" stroke="white" stroke-width="2"/>
<path id="Vector_4" d="M38.9372 18.6177C39.2389 17.8498 40.3219 17.8498 40.6236 18.6177L40.9178 19.3665C41.0101 19.601 41.1949 19.7866 41.4286 19.879L42.1744 20.1743C42.9396 20.4772 42.9396 21.5642 42.1744 21.867L41.4286 22.1623C41.1949 22.2547 41.0101 22.4404 40.9178 22.6747L40.6236 23.4236C40.3219 24.1916 39.2389 24.1916 38.9372 23.4236L38.6431 22.6747C38.5508 22.4404 38.3659 22.2547 38.1323 22.1623L37.3863 21.867C36.6213 21.5642 36.6213 20.4772 37.3863 20.1743L38.1323 19.879C38.3659 19.7866 38.5508 19.601 38.6431 19.3665L38.9372 18.6177Z" stroke="white" stroke-width="2"/>
<path id="Vector_5" d="M11.1248 30.201C11.4265 29.433 12.5094 29.433 12.8111 30.201L13.1054 30.9497C13.1975 31.1843 13.3824 31.3699 13.616 31.4623L14.362 31.7576C15.1272 32.0604 15.1272 33.1474 14.362 33.4502L13.616 33.7455C13.3824 33.8379 13.1975 34.0236 13.1054 34.2581L12.8111 35.0068C12.5094 35.7748 11.4265 35.7748 11.1248 35.0068L10.8305 34.2581C10.7384 34.0236 10.5535 33.8379 10.3199 33.7455L9.57386 33.4502C8.80871 33.1474 8.80871 32.0604 9.57386 31.7576L10.3199 31.4623C10.5535 31.3699 10.7384 31.1843 10.8305 30.9497L11.1248 30.201Z" stroke="white" stroke-width="2"/>
</g>
</svg>
