<svg width="144" height="32" viewBox="0 0 144 32" fill="none" xmlns="http://www.w3.org/2000/svg">
<g id="Doba Digital Logo" clip-path="url(#clip0_179_561)">
<g id="Group">
<g id="Layer_1">
<g id="Group_2">
<g id="Group_3">
<path id="Vector" d="M97.166 10.9971C97.0596 10.9971 96.9531 10.8972 96.9531 10.7973V1.19883C96.9531 1.09893 97.0596 0.999023 97.166 0.999023H101.662C105.036 0.999023 107.558 2.95099 107.558 6.0019C107.558 9.05282 105.429 11.0048 101.695 11.0048H97.166V10.9971ZM99.369 2.8972V9.09893H101.695C103.947 9.09893 105.142 7.90008 105.142 6.0019C105.142 4.10373 103.685 2.90488 101.662 2.90488H99.369V2.8972Z" fill="#F0532D"/>
<path id="Vector_2" d="M117.355 7.58496C117.355 9.88275 115.438 11.1661 113.162 11.1661C110.885 11.1661 108.969 9.88275 108.969 7.58496C108.969 5.28717 110.885 4.00378 113.162 4.00378C115.438 4.00378 117.355 5.28717 117.355 7.58496ZM113.17 5.80206C112.032 5.80206 111.254 6.55518 111.254 7.58496C111.254 8.61474 112.032 9.36786 113.17 9.36786C114.308 9.36786 115.086 8.63779 115.086 7.58496C115.086 6.53212 114.308 5.80206 113.17 5.80206Z" fill="#F0532D"/>
<path id="Vector_3" d="M121.19 4.69549H121.28C121.829 4.24207 122.664 3.99616 123.467 3.99616C125.637 3.99616 126.947 5.49472 126.947 7.56196C126.947 9.6292 125.367 11.1585 123.36 11.1585C121.354 11.1585 121.731 10.9049 121.051 10.4284H121.018L120.838 10.7435C120.732 10.928 120.609 10.9971 120.486 10.9971H119.225C119.118 10.9971 118.922 10.8127 118.922 10.7128V0.284342C118.922 0.184438 119.118 0 119.225 0H120.895C121.002 0 121.198 0.184438 121.198 0.284342V4.70317L121.19 4.69549ZM122.984 5.80211C122.148 5.80211 121.461 6.30163 121.19 6.95485V8.73775C121.616 9.122 122.165 9.35255 122.926 9.35255C123.688 9.35255 124.663 8.72238 124.663 7.56964C124.663 6.41691 123.991 5.80211 122.976 5.80211H122.984Z" fill="#F0532D"/>
<path id="Vector_4" d="M133.909 10.3132C133.181 10.8281 132.239 11.1662 131.141 11.1662C129.299 11.1662 128.406 10.1979 128.406 9.05289C128.406 7.90783 129.274 6.97027 131.494 6.97027C133.713 6.97027 133.787 7.08555 133.787 7.08555L133.819 7.07018V6.88574C133.819 6.18641 133.336 5.70226 132.19 5.70226C131.043 5.70226 130.986 5.97123 130.961 6.40159V6.43233C130.945 6.53223 130.798 6.57834 130.658 6.57834H128.988C128.881 6.57834 128.685 6.39391 128.685 6.294V6.22484C128.685 4.99525 129.7 3.98853 132.198 3.98853C134.696 3.98853 136.088 5.35644 136.088 7.12397V10.7051C136.088 10.805 135.891 10.9895 135.785 10.9895H134.474C134.352 10.9895 134.245 10.9203 134.171 10.7743L133.959 10.3055H133.901L133.909 10.3132ZM133.819 8.9453V8.43041H131.674C130.896 8.43041 130.683 8.69938 130.683 8.99909C130.683 9.2988 130.929 9.52935 131.535 9.52935C132.141 9.52935 133.328 9.26038 133.828 8.9453H133.819Z" fill="#F0532D"/>
<path id="Vector_5" d="M97.166 27.6657C97.0596 27.6657 96.9531 27.5658 96.9531 27.4659V17.8674C96.9531 17.7675 97.0596 17.6676 97.166 17.6676H101.662C105.036 17.6676 107.558 19.6196 107.558 22.6705C107.558 25.7214 105.429 27.6734 101.695 27.6734H97.166V27.6657ZM99.369 19.5658V25.7675H101.695C103.947 25.7675 105.142 24.5687 105.142 22.6705C105.142 20.7723 103.685 19.5735 101.662 19.5735H99.369V19.5658Z" fill="#F0532D"/>
<path id="Vector_6" d="M110.256 17.4985C111.058 17.4985 111.566 17.9827 111.566 18.5667C111.566 19.1508 111.05 19.6349 110.256 19.6349C109.461 19.6349 108.945 19.1508 108.945 18.5667C108.945 17.9827 109.461 17.4985 110.256 17.4985ZM111.394 27.3813C111.394 27.4812 111.197 27.6657 111.091 27.6657H109.42C109.314 27.6657 109.117 27.4812 109.117 27.3813V21.1181C109.117 21.0182 109.314 20.8338 109.42 20.8338H111.091C111.197 20.8338 111.394 21.0182 111.394 21.1181V27.3813Z" fill="#F0532D"/>
<path id="Vector_7" d="M113.717 28.196V28.1653C113.184 27.8348 112.914 27.3353 112.914 26.6975C112.914 26.0596 113.324 25.4448 113.766 25.0836C113.389 24.6302 113.201 24.0846 113.201 23.4314C113.201 21.9328 114.445 20.6648 116.526 20.6648C118.606 20.6648 118.106 20.88 118.728 21.3334H118.786C119.179 20.9338 119.605 20.6648 120.399 20.6648C121.193 20.6648 120.792 20.7647 120.792 20.8646V22.2171C120.792 22.3017 120.686 22.3862 120.596 22.3862C120.506 22.3862 120.456 22.3708 120.293 22.3708C120.063 22.3708 119.85 22.417 119.67 22.5553C119.777 22.855 119.834 23.1393 119.834 23.4391C119.834 25.0221 118.63 26.2056 116.534 26.2056C114.437 26.2056 115.502 26.1057 115.076 25.9366C114.97 26.0519 114.847 26.2671 114.847 26.49C114.847 26.805 115.092 27.0049 115.731 27.0049H117.615C119.711 27.0049 120.669 28.1192 120.669 29.3026C120.669 30.4861 119.547 32 116.796 32H116.722C114.339 32 112.996 30.9703 112.996 29.7176C112.996 28.465 113.315 28.5879 113.725 28.2037L113.717 28.196ZM115.707 28.6341C115.477 28.7647 115.264 29.0337 115.264 29.3872C115.264 29.9021 115.829 30.3017 116.681 30.3017H116.861C117.942 30.3017 118.384 29.8483 118.384 29.3488C118.384 28.8492 118.155 28.6341 117.336 28.6341H115.707ZM116.501 24.4996C117.23 24.4996 117.729 24.0154 117.729 23.4314C117.729 22.8473 117.23 22.3632 116.501 22.3632C115.772 22.3632 115.297 22.8473 115.297 23.4314C115.297 24.0154 115.78 24.4996 116.501 24.4996Z" fill="#F0532D"/>
<path id="Vector_8" d="M122.967 17.4985C123.769 17.4985 124.277 17.9827 124.277 18.5667C124.277 19.1508 123.761 19.6349 122.967 19.6349C122.172 19.6349 121.656 19.1508 121.656 18.5667C121.656 17.9827 122.172 17.4985 122.967 17.4985ZM124.105 27.3813C124.105 27.4812 123.908 27.6657 123.802 27.6657H122.131C122.025 27.6657 121.828 27.4812 121.828 27.3813V21.1181C121.828 21.0182 122.025 20.8338 122.131 20.8338H123.802C123.908 20.8338 124.105 21.0182 124.105 21.1181V27.3813Z" fill="#F0532D"/>
<path id="Vector_9" d="M125.386 22.632C125.28 22.632 125.141 22.5014 125.141 22.4015V21.072C125.141 20.9721 125.28 20.8415 125.386 20.8415H126.205V19.2891C126.205 19.1892 126.402 19.0048 126.508 19.0048H128.179C128.285 19.0048 128.482 19.1892 128.482 19.2891V20.8415H130.758C130.865 20.8415 131.004 20.9721 131.004 21.072V22.4015C131.004 22.5014 130.865 22.632 130.758 22.632H128.482V24.9683C128.482 25.7675 128.908 26.0365 129.546 26.0365C130.185 26.0365 130.349 25.852 130.611 25.7214C130.791 25.6368 130.947 25.7214 131.004 25.852L131.307 26.682C131.34 26.7973 131.381 26.9125 131.381 26.9817C131.381 27.097 131.291 27.2123 131.135 27.3122C130.758 27.5427 129.997 27.827 129.162 27.827C127.442 27.827 126.213 26.9433 126.213 25.145V22.632H125.394H125.386Z" fill="#F0532D"/>
<path id="Vector_10" d="M137.909 26.9818C137.181 27.4967 136.239 27.8348 135.141 27.8348C133.299 27.8348 132.406 26.8665 132.406 25.7215C132.406 24.5764 133.274 23.6389 135.494 23.6389C137.713 23.6389 137.787 23.7541 137.787 23.7541L137.819 23.7388V23.5543C137.819 22.855 137.336 22.3708 136.19 22.3708C135.043 22.3708 134.986 22.6398 134.961 23.0702V23.1009C134.945 23.2008 134.798 23.2469 134.658 23.2469H132.988C132.881 23.2469 132.685 23.0625 132.685 22.9626V22.8934C132.685 21.6638 133.7 20.6571 136.198 20.6571C138.696 20.6571 140.088 22.025 140.088 23.7926V27.3737C140.088 27.4736 139.891 27.6581 139.785 27.6581H138.474C138.352 27.6581 138.245 27.5889 138.171 27.4429L137.959 26.9741H137.901L137.909 26.9818ZM137.819 25.6139V25.099H135.674C134.896 25.099 134.683 25.368 134.683 25.6677C134.683 25.9674 134.929 26.1979 135.535 26.1979C136.141 26.1979 137.328 25.929 137.828 25.6139H137.819Z" fill="#F0532D"/>
<path id="Vector_11" d="M144.003 27.3814C144.003 27.4813 143.807 27.6657 143.7 27.6657H142.03C141.923 27.6657 141.727 27.4813 141.727 27.3814V16.9529C141.727 16.853 141.923 16.6686 142.03 16.6686H143.7C143.807 16.6686 144.003 16.853 144.003 16.9529V27.3814Z" fill="#F0532D"/>
</g>
<g id="Group_4">
<path id="Vector_12" d="M55.757 14.6474C55.757 22.6551 48.9026 27.8501 40.7379 27.8501C32.5732 27.8501 25.7188 22.6551 25.7188 14.6474C25.7188 6.63971 32.5732 1.45239 40.7379 1.45239C48.9026 1.45239 55.757 6.77804 55.757 14.6551V14.6474Z" fill="#F0532D"/>
<path id="Vector_13" d="M81.4845 14.7012V14.7397C81.4845 16.0538 81.3289 17.3756 80.9686 18.6436C80.6328 19.8194 80.1169 20.9414 79.4126 21.9635C78.7165 22.9625 77.8403 23.8463 76.8494 24.5764C75.7766 25.3679 74.5646 25.9827 73.3034 26.4515C71.7229 27.0355 70.0605 27.389 68.3735 27.6042C67.3253 27.7349 66.2607 27.8117 65.2042 27.8348C64.6719 27.8424 64.1314 27.8348 63.5991 27.8194C63.4763 27.8194 63.3289 27.8117 63.1979 27.7887C62.9031 27.7425 62.6328 27.6196 62.6328 27.2815V2.15945C62.6328 1.82132 62.9031 1.69836 63.1979 1.65225C63.3371 1.6292 63.4763 1.62151 63.5991 1.62151C64.1314 1.59846 64.6719 1.59077 65.2042 1.60614C66.2688 1.6292 67.3253 1.70604 68.3735 1.83669C70.0523 2.05187 71.7147 2.40537 73.3034 2.98943C74.5646 3.45821 75.7766 4.073 76.8494 4.86455C77.8485 5.59461 78.7165 6.47838 79.4126 7.47742C80.1169 8.49951 80.6328 9.62151 80.9686 10.7973C81.3289 12.073 81.4845 13.3871 81.4845 14.7012Z" fill="#F0532D"/>
<path id="Vector_14" d="M0 14.7473V14.7088C0 13.3947 0.155596 12.0729 0.515924 10.8049C0.851683 9.6291 1.36761 8.5071 2.07188 7.48501C2.76797 6.48597 3.64422 5.60221 4.63512 4.87214C5.70792 4.08059 6.91993 3.4658 8.18108 2.99702C9.7616 2.41296 11.424 2.05946 13.111 1.84428C14.1592 1.71364 15.2238 1.63679 16.2803 1.61373C16.8126 1.60605 17.3531 1.61373 17.8854 1.6291C18.0082 1.6291 18.1556 1.63679 18.2866 1.65984C18.5814 1.70595 18.8517 1.82891 18.8517 2.16705V27.289C18.8517 27.6272 18.5814 27.7501 18.2866 27.7963C18.1474 27.8193 18.0082 27.827 17.8854 27.827C17.3531 27.85 16.8126 27.8577 16.2803 27.8424C15.2157 27.8193 14.1592 27.7425 13.111 27.6118C11.4322 27.3966 9.76979 27.0431 8.18108 26.4591C6.91993 25.9903 5.70792 25.3755 4.63512 24.584C3.63603 23.8539 2.76797 22.9701 2.07188 21.9711C1.36761 20.949 0.851683 19.827 0.515924 18.6512C0.155596 17.3755 0 16.0614 0 14.7473Z" fill="#F0532D"/>
</g>
</g>
</g>
</g>
</g>
<defs>
<clipPath id="clip0_179_561">
<rect width="144" height="32" fill="white"/>
</clipPath>
</defs>
</svg>
