<svg width="150" height="28" viewBox="0 0 150 28" fill="none" xmlns="http://www.w3.org/2000/svg">
<g id="Logo.svg" clip-path="url(#clip0_248_17472)">
<g id="Group">
<path id="Vector" d="M148.055 22.4109V22.0035H148.311C148.439 22.0035 148.644 22.0289 148.644 22.1817C148.644 22.3345 148.541 22.4109 148.362 22.4109H148.055ZM148.055 22.691H148.234L148.644 23.4039H149.079L148.618 22.6655C148.848 22.691 149.028 22.5127 149.053 22.2835V22.2326C149.053 21.8252 148.772 21.7234 148.311 21.7234H147.645V23.4294H148.029V22.691M150.001 22.5636C150.001 21.5451 149.207 20.9595 148.336 20.9595C147.466 20.9595 146.672 21.5451 146.672 22.5636C146.672 23.5822 147.466 24.1678 148.336 24.1678C149.207 24.1678 150.001 23.5822 150.001 22.5636ZM149.514 22.5636C149.54 23.2002 149.028 23.7604 148.387 23.7859H148.336C147.671 23.8113 147.082 23.2766 147.056 22.6146C147.03 21.9525 147.568 21.3669 148.234 21.3414C148.9 21.316 149.489 21.8507 149.514 22.5127C149.514 22.5382 149.514 22.5382 149.514 22.5636Z" fill="black"/>
<path id="Vector_2" d="M88.9779 5.55427V23.6075H94.0991V5.55427H88.9779ZM48.6484 5.52881V23.6075H53.8209V9.57742L57.841 9.60288C59.1725 9.60288 60.0943 9.9339 60.7089 10.5959C61.5283 11.4617 61.8355 12.8367 61.8355 15.383V23.633H66.8543V13.626C66.8543 6.4964 62.2964 5.52881 57.8154 5.52881C57.8666 5.52881 48.6484 5.52881 48.6484 5.52881ZM97.2486 5.55427V23.6075H105.571C110 23.6075 111.46 22.8691 112.996 21.2395C114.097 20.0936 114.814 17.5473 114.814 14.7719C114.814 12.2256 114.225 9.95936 113.15 8.5589C111.281 6.03807 108.541 5.55427 104.444 5.55427C104.418 5.55427 97.2486 5.55427 97.2486 5.55427ZM102.319 9.47557H104.521C107.722 9.47557 109.796 10.9015 109.796 14.5936C109.796 18.2858 107.722 19.7371 104.521 19.7371H102.319V9.47557ZM81.6034 5.55427L77.3272 19.8645L73.2302 5.55427H67.6993L73.5375 23.6075H80.912L86.827 5.55427H81.6034ZM117.196 23.633H122.317V5.55427H117.196V23.633ZM131.586 5.55427L124.442 23.6075H129.487L130.613 20.3992H139.089L140.164 23.582H145.67L138.449 5.55427H131.586ZM134.889 8.86446L138.013 17.2927H131.714C131.689 17.2927 134.889 8.86446 134.889 8.86446Z" fill="black"/>
<path id="Vector_3" d="M15.5941 8.55894V6.08903C15.8501 6.06357 16.0806 6.06357 16.3366 6.06357C23.1734 5.85986 27.6545 11.92 27.6545 11.92C27.6545 11.92 22.815 18.5659 17.6169 18.5659C16.9256 18.5659 16.2598 18.464 15.5941 18.2349V10.7233C18.2571 11.0543 18.7948 12.2001 20.3824 14.8483L23.9416 11.8691C23.9416 11.8691 21.3298 8.48255 16.9768 8.48255C16.5159 8.48255 16.055 8.50801 15.5941 8.55894ZM15.5941 0.359863V4.05199L16.3366 4.00107C25.8365 3.67005 32.0331 11.7418 32.0331 11.7418C32.0331 11.7418 24.9146 20.3738 17.5145 20.3738C16.8744 20.3738 16.2342 20.3228 15.5941 20.1955V22.4872C16.1062 22.5381 16.6439 22.589 17.1816 22.589C24.0696 22.589 29.0628 19.0751 33.9024 14.9501C34.6961 15.5867 37.9737 17.14 38.6651 17.802C34.0816 21.6214 23.3783 24.7025 17.3097 24.7025C16.7207 24.7025 16.183 24.677 15.6197 24.6006V27.8599H41.8146V0.359863H15.5941ZM15.5941 18.2603V20.221C9.21816 19.0751 7.45135 12.4802 7.45135 12.4802C7.45135 12.4802 10.5241 9.11912 15.5941 8.55894V10.6978H15.5685C12.9054 10.3668 10.8057 12.8622 10.8057 12.8622C10.8057 12.8622 12.0092 17.0381 15.5941 18.2603ZM4.2762 12.2001C4.2762 12.2001 8.04029 6.64922 15.5941 6.08903V4.07746C7.22089 4.73949 0 11.7673 0 11.7673C0 11.7673 4.09696 23.5566 15.5941 24.6261V22.4872C7.14408 21.4432 4.2762 12.2001 4.2762 12.2001Z" fill="#76B900"/>
</g>
</g>
<defs>
<clipPath id="clip0_248_17472">
<rect width="150" height="27.5" fill="white" transform="translate(0 0.359863)"/>
</clipPath>
</defs>
</svg>
