<svg width="48" height="48" viewBox="0 0 48 48" fill="none" xmlns="http://www.w3.org/2000/svg">
<g id="Bag-Smile--Streamline-Solar-Broken">
<path id="Vector" d="M18.375 12.75V10.875C18.375 7.76841 20.8933 5.25 24 5.25C27.1067 5.25 29.625 7.76841 29.625 10.875V12.75" stroke="white" stroke-width="2" stroke-linecap="round"/>
<path id="Vector_2" d="M18.6953 29.625C19.4675 31.8098 21.5511 33.375 24.0002 33.375C26.4494 33.375 28.5331 31.8098 29.3052 29.625" stroke="white" stroke-width="2" stroke-linecap="round"/>
<path id="Vector_3" d="M39.4195 24.9857C38.322 19.1335 37.7734 16.2074 35.6905 14.4787C33.6075 12.75 30.6306 12.75 24.6763 12.75H23.3241C17.3699 12.75 14.3928 12.75 12.3099 14.4787C10.227 16.2074 9.67831 19.1335 8.58102 24.9857C7.03803 33.2149 6.26654 37.3296 8.51584 40.0397C10.7651 42.75 14.9514 42.75 23.3241 42.75H24.6763C33.049 42.75 37.2353 42.75 39.4845 40.0397C40.7895 38.4673 41.0777 36.4223 40.7884 33.375" stroke="white" stroke-width="3" stroke-linecap="round"/>
</g>
</svg>
