<svg width="49" height="48" viewBox="0 0 49 48" fill="none" xmlns="http://www.w3.org/2000/svg">
<g id="Presentation-Graph--Streamline-Solar-Broken">
<path id="Vector" d="M14.6719 6.68263C17.6136 4.97649 21.029 4 24.6719 4C35.7176 4 44.6719 12.9777 44.6719 24.0522C44.6719 40.356 28.349 28.8384 25.1956 33.8537C24.4068 35.1083 25.2595 36.6727 26.3055 37.7215C27.6124 39.0318 27.6124 41.1562 26.3055 42.4665C25.2595 43.5153 23.8351 44.1417 22.3654 43.9725C12.4061 42.826 4.67188 34.3447 4.67188 24.0522C4.67188 20.3891 5.65158 16.9553 7.36261 14" stroke="white" stroke-width="1.5" stroke-linecap="round"/>
<circle id="Vector_2" cx="35.6719" cy="23" r="3" stroke="white" stroke-width="1.5"/>
<circle id="Vector_3" cx="13.6719" cy="23" r="3" stroke="white" stroke-width="1.5"/>
<path id="Vector_4" d="M22.8438 13.9995C22.8438 15.6564 21.5006 16.9995 19.8438 16.9995C18.1869 16.9995 16.8438 15.6564 16.8438 13.9995C16.8438 12.3427 18.1869 10.9995 19.8438 10.9995C21.5006 10.9995 22.8438 12.3427 22.8438 13.9995Z" stroke="white" stroke-width="1.5"/>
<path id="Vector_5" d="M32.6719 14C32.6719 15.6569 31.3287 17 29.6719 17C28.015 17 26.6719 15.6569 26.6719 14C26.6719 12.3431 28.015 11 29.6719 11C31.3287 11 32.6719 12.3431 32.6719 14Z" stroke="white" stroke-width="1.5"/>
</g>
</svg>
