<svg width="166" height="160" viewBox="0 0 166 160" fill="none" xmlns="http://www.w3.org/2000/svg">
<path d="M55.7967 159.539C47.4652 159.539 40.7109 158.6 40.7109 157.441C40.7109 156.282 47.4652 155.343 55.7967 155.343C64.1284 155.343 70.8827 156.282 70.8827 157.441C70.8827 158.6 64.1284 159.539 55.7967 159.539Z" fill="#353639"/>
<path d="M103.015 156.601C103.015 157.76 96.2612 158.699 87.9298 158.699C79.598 158.699 72.8438 157.76 72.8438 156.601C72.8438 155.442 79.598 154.503 87.9298 154.503C96.2612 154.503 103.015 155.442 103.015 156.601Z" fill="#0E0F0E"/>
<path d="M89.7693 130.579H89.4974C85.5905 130.579 82.5186 127.242 82.844 123.352L82.9798 121.724C83.2691 118.269 86.1616 115.609 89.6335 115.609C93.1051 115.609 95.9976 118.269 96.2869 121.724L96.423 123.352C96.7484 127.242 93.6762 130.579 89.7693 130.579Z" fill="#1B1C20"/>
<path d="M97.7306 146.854H81.5312L82.9027 131.882H96.3591L97.7306 146.854Z" fill="#1B1C20"/>
<path d="M79.8984 132.182C79.8984 136.414 84.2563 139.845 89.6322 139.845C95.0078 139.845 99.3658 136.414 99.3658 132.182C99.3658 127.95 95.0078 124.52 89.6322 124.52C84.2563 124.52 79.8984 127.95 79.8984 132.182Z" fill="white"/>
<path d="M95.896 126.32C96.801 127.482 97.3317 128.845 97.3317 130.31C97.3317 134.542 92.974 137.972 87.5981 137.972C85.212 137.972 83.0289 137.295 81.3359 136.172C83.0465 138.372 86.1178 139.845 89.6338 139.845C95.0094 139.845 99.3674 136.414 99.3674 132.182C99.3674 129.828 98.0171 127.724 95.896 126.32Z" fill="#DBDEE8"/>
<path d="M103.127 155.932L103.125 155.924C103.122 155.384 103.022 150.186 100.6 144.674C98.9804 140.984 98.1611 140.2 97.7855 140.101C97.4492 142.543 93.8797 144.467 89.5174 144.467C85.2226 144.467 81.6898 142.603 81.26 140.216C80.8165 140.536 80.0222 141.59 78.6673 144.674C76.2456 150.186 76.1453 155.384 76.1434 155.924L76.1406 155.932L76.1434 155.943L76.1431 155.949H76.1453C76.1966 157.232 103.071 157.232 103.122 155.949H103.125V155.943L103.127 155.932Z" fill="white"/>
<path d="M99.5637 142.483C98.6118 140.649 98.0707 140.175 97.7859 140.101C97.4492 142.543 93.8801 144.468 89.5175 144.468C85.2226 144.468 81.6899 142.604 81.2604 140.217C80.9424 140.445 80.4429 141.056 79.6875 142.516C81.594 144.493 86.0026 147.593 93.8453 145.635C96.2491 145.035 98.1143 143.895 99.5637 142.483Z" fill="#DBDEE8"/>
<path d="M43.1406 95.0996L51.4459 93.4366L53.8646 97.3491C53.8646 97.3491 52.8708 98.9213 48.0867 99.6096C43.3026 100.301 43.1406 95.0996 43.1406 95.0996Z" fill="#1B1C20"/>
<path d="M45.7856 93.7971C45.7856 93.7971 35.9251 95.4877 30.0778 100.435C24.2302 105.38 22.3623 111.096 23.6255 114.599C25.2185 119.012 29.1201 118.789 30.8608 118.357C37.9153 116.606 45.5063 105.796 47.8703 99.8931C48.7743 98.1282 46.03 99.0725 46.2361 97.349C46.4421 95.6254 47.1182 93.9513 45.7856 93.7971Z" fill="white"/>
<path d="M46.8519 98.42C43.9159 104.491 37.012 113.682 30.5548 115.284C28.8139 115.717 24.9122 115.94 23.3192 111.526L23.2997 111.46C23.1884 112.619 23.2994 113.685 23.6286 114.599C25.2216 119.012 29.1233 118.789 30.8639 118.357C37.9184 116.603 45.5094 105.796 47.8735 99.8931C48.4534 98.7614 47.5329 98.7422 46.8519 98.42Z" fill="#DBDEE8"/>
<path d="M27.6351 114.596C27.6938 115.56 27.1949 116.375 26.5202 116.416C25.8455 116.458 25.2512 115.709 25.1922 114.745C25.1333 113.781 25.6325 112.969 26.3072 112.928C26.9816 112.887 27.5762 113.633 27.6351 114.596Z" fill="#1B1C20"/>
<path d="M101.497 86.9388L94.0625 90.9945L94.721 95.543C94.721 95.543 96.493 96.113 100.604 93.5716C104.715 91.0303 101.497 86.9388 101.497 86.9388Z" fill="#1B1C20"/>
<path d="M98.2733 88.261C98.2733 88.261 105.399 81.2427 112.83 79.3814C120.261 77.5202 125.996 79.3374 128.105 82.4046C130.763 86.2731 128.306 89.31 126.94 90.4719C121.4 95.1746 108.187 95.0315 102.012 93.5089C100.049 93.2142 102.418 91.5375 100.897 90.6977C99.3753 89.8607 97.6196 89.4312 98.2733 88.261Z" fill="white"/>
<path d="M122.673 79.1034C124.188 79.7642 125.359 80.6673 126.087 81.7273C128.747 85.5958 126.29 88.6354 124.923 89.7946C119.732 94.2027 107.804 94.3542 101.242 93.1041C101.333 93.2941 101.55 93.44 102.007 93.5089C108.182 95.0315 121.396 95.1746 126.935 90.4719C128.302 89.31 130.759 86.2731 128.1 82.4046C127.075 80.9151 125.189 79.7229 122.673 79.1034Z" fill="#DBDEE8"/>
<path d="M125.764 85.6554C126.513 86.2639 127.465 86.3355 127.892 85.8096C128.319 85.2865 128.059 84.3696 127.31 83.7584C126.562 83.1499 125.609 83.0783 125.182 83.6042C124.755 84.1273 125.015 85.0442 125.764 85.6554Z" fill="#1B1C20"/>
<path d="M102.485 105.981C100.773 91.5562 88.545 83.2494 74.0149 83.2356C59.4846 83.2494 47.2567 91.5562 45.545 105.981L43.7041 121.895C43.6151 122.666 44.2168 123.341 44.9918 123.341H103.038C103.813 123.341 104.415 122.666 104.326 121.895L102.485 105.981Z" fill="white"/>
<path d="M78 105.499C78 108.229 75.7181 110 73 110C70.2819 110 68 108.229 68 105.499C68 102.769 70.2819 101 73 101C75.7181 101 78 102.816 78 105.501V105.499Z" fill="#F0532D"/>
<path d="M87 105.494V105.507C87 105.958 86.9422 106.412 86.8084 106.846C86.6838 107.25 86.4922 107.635 86.2307 107.985C85.9722 108.328 85.6468 108.631 85.2789 108.881C84.8805 109.153 84.4305 109.364 83.9622 109.525C83.3753 109.725 82.758 109.846 82.1316 109.92C81.7424 109.965 81.3471 109.991 80.9548 109.999C80.7572 110.002 80.5565 109.999 80.3588 109.994C80.3132 109.994 80.2585 109.991 80.2098 109.983C80.1003 109.967 80 109.925 80 109.809V101.193C80 101.077 80.1003 101.034 80.2098 101.019C80.2615 101.011 80.3132 101.008 80.3588 101.008C80.5565 101 80.7572 100.997 80.9548 101.003C81.3501 101.011 81.7424 101.037 82.1316 101.082C82.755 101.156 83.3723 101.277 83.9622 101.477C84.4305 101.638 84.8805 101.849 85.2789 102.12C85.6499 102.371 85.9722 102.674 86.2307 103.017C86.4922 103.367 86.6838 103.752 86.8084 104.155C86.9422 104.593 87 105.044 87 105.494Z" fill="#F0532D"/>
<path d="M59 105.506V105.493C59 105.042 59.0495 104.588 59.1642 104.154C59.2711 103.75 59.4353 103.365 59.6594 103.015C59.881 102.672 60.1599 102.369 60.4752 102.119C60.8167 101.847 61.2024 101.636 61.6038 101.475C62.1069 101.275 62.636 101.154 63.1729 101.08C63.5065 101.035 63.8454 101.009 64.1816 101.001C64.351 100.998 64.523 101.001 64.6924 101.006C64.7315 101.006 64.7785 101.009 64.8202 101.017C64.914 101.033 65 101.075 65 101.191V109.807C65 109.923 64.914 109.966 64.8202 109.981C64.7758 109.989 64.7315 109.992 64.6924 109.992C64.523 110 64.351 110.003 64.1816 109.997C63.8427 109.989 63.5065 109.963 63.1729 109.918C62.6386 109.844 62.1095 109.723 61.6038 109.523C61.2024 109.362 60.8167 109.151 60.4752 108.88C60.1573 108.629 59.881 108.326 59.6594 107.983C59.4353 107.633 59.2711 107.248 59.1642 106.845C59.0495 106.407 59 105.956 59 105.506Z" fill="#F0532D"/>
<path d="M50.2969 121.903L69.3474 124.984C69.3573 121.157 65.7909 117.619 60.893 116.829C55.9951 116.036 51.4942 118.272 50.2969 121.903Z" fill="#FDE6EA"/>
<path d="M104.322 121.895L102.481 105.981C101.573 98.3349 97.7086 92.407 92.1126 88.522H92.1123C91.9404 88.4009 91.763 88.288 91.5881 88.1723C91.4374 88.0732 91.2889 87.9714 91.1357 87.875C90.9613 87.7649 90.7825 87.6602 90.6048 87.5556C90.4456 87.4592 90.288 87.3629 90.126 87.272C89.9486 87.1701 89.767 87.0738 89.5865 86.9746C89.4196 86.8838 89.2535 86.7929 89.0843 86.7048C88.9041 86.614 88.7206 86.5231 88.5377 86.435C88.363 86.3496 88.1889 86.2643 88.0118 86.1817C87.8288 86.0963 87.6431 86.0165 87.4574 85.9339C87.2762 85.854 87.0943 85.7742 86.9106 85.6998C86.7243 85.6228 86.5364 85.5484 86.3477 85.4741C86.1601 85.3997 85.9719 85.3281 85.7821 85.2593C85.5931 85.1877 85.4025 85.1216 85.2113 85.0555C85.0173 84.9895 84.8228 84.9234 84.6266 84.8601C84.4357 84.7967 84.244 84.7389 84.0511 84.6811C83.8495 84.6178 83.6467 84.56 83.4428 84.5021C83.2516 84.4498 83.0599 84.3975 82.8667 84.348C82.6579 84.2929 82.448 84.2406 82.2372 84.191C82.0446 84.1442 81.8521 84.0974 81.6578 84.0561C81.4418 84.0093 81.2242 83.9625 81.0063 83.9212C80.814 83.8826 80.6222 83.8441 80.4288 83.8083C80.2037 83.767 79.9767 83.7312 79.7497 83.6954C79.5601 83.6624 79.3711 83.6321 79.1802 83.6046C78.9433 83.5715 78.7044 83.5412 78.4659 83.5109C78.2815 83.4889 78.098 83.4641 77.9124 83.4448C77.6603 83.4173 77.4057 83.398 77.1517 83.376C76.9765 83.3595 76.8024 83.343 76.6266 83.3292C76.3392 83.31 76.05 83.2962 75.7607 83.2824C75.6158 83.2742 75.4722 83.2659 75.3273 83.2604C74.8906 83.2439 74.452 83.2356 74.0107 83.2356C73.4908 83.2356 72.9745 83.2494 72.461 83.2714C72.4136 83.2741 72.3665 83.2769 72.3194 83.2796C66.1035 83.566 60.3807 85.3915 55.8203 88.5853C62.5963 89.1911 69.061 89.1939 73.6297 89.1939C74.7634 89.1939 76.0139 89.1938 77.357 89.1828C86.4783 89.1167 94.4081 95.6229 95.9328 104.61C96.0093 105.061 96.0752 105.518 96.13 105.981L97.9709 121.895C98.0599 122.666 97.4582 123.341 96.6832 123.341H103.034C103.809 123.341 104.411 122.666 104.322 121.895Z" fill="#DBDEE8"/>
<path d="M121.777 30.5168L121.452 31.3263C120.883 32.7498 121.721 34.2861 123.327 34.768C124.939 35.2498 126.716 34.4844 127.292 33.0554L127.621 32.2404C128.197 30.8087 127.349 29.264 125.729 28.7905C124.115 28.3169 122.347 29.0933 121.777 30.5168Z" fill="#111212"/>
<path d="M107.991 35.2698C110.275 40.9362 115.703 44.4027 120.14 42.9792C124.616 41.542 126.357 35.6938 124.002 29.9476C121.656 24.2289 116.163 20.8478 111.758 22.3621C107.392 23.8655 105.717 29.6282 107.991 35.2698Z" fill="white"/>
<path d="M107.479 35.504C109.986 41.7265 114.88 45.8813 118.422 44.7497C121.989 43.6098 122.807 37.558 120.238 31.2666C117.68 25.0055 112.757 20.936 109.253 22.1448C105.774 23.3452 104.984 29.3117 107.479 35.504Z" fill="#1B1C20"/>
<path d="M124.703 29.9833L128.452 14.4076L130.216 14.5783L126.348 31.8115L124.703 29.9833Z" fill="#111212"/>
<path d="M126.676 33.9864C126.734 34.259 126.547 34.5206 126.26 34.5701C125.972 34.6224 125.693 34.4407 125.635 34.1681C125.578 33.8983 125.764 33.6367 126.052 33.5844C126.339 33.5349 126.619 33.7138 126.676 33.9864Z" fill="#EE252B"/>
<path d="M11.1405 50.4324L11.6427 51.0134C12.5246 52.0349 12.4048 53.5603 11.3757 54.4221C10.3492 55.2811 8.80833 55.1489 7.93389 54.1302L7.4355 53.5492C6.56353 52.5333 6.68145 51.0162 7.69998 50.1544C8.72072 49.2926 10.2611 49.4165 11.1405 50.4324Z" fill="#111212"/>
<path d="M23.1457 50.3497C23.2783 55.8729 20.256 60.3747 16.4248 60.4022C12.6251 60.4325 9.46259 56.0491 9.33228 50.6085C9.20197 45.1679 12.1518 40.669 15.949 40.5561C19.7783 40.4432 23.0135 44.8265 23.1457 50.3497Z" fill="white"/>
<path d="M23.6203 50.3994C23.7657 56.4677 21.3749 61.4045 18.2989 61.4238C15.2439 61.4458 12.6654 56.6027 12.5219 50.6059C12.3781 44.6118 14.7221 39.6751 17.7755 39.5815C20.8495 39.4879 23.4748 44.331 23.6203 50.3994Z" fill="#1B1C20"/>
<path d="M8.82519 50.8449L1.18686 39.1707L0 39.8508L8.21716 52.8301L8.82519 50.8449Z" fill="#111212"/>
<path d="M8.68019 54.7249C8.72592 54.9644 8.94522 55.1296 9.17058 55.0911C9.39594 55.0498 9.54169 54.824 9.49623 54.5817C9.45022 54.3394 9.23064 54.1742 9.00528 54.2155C8.78019 54.2541 8.63473 54.4826 8.68019 54.7249Z" fill="#EE252B"/>
<path d="M105.157 9.77567C101.287 1.41739 93.0131 -0.854454 83.1565 0.454605C79.5601 0.930374 67.7928 3.28948 56.2553 5.77811C45.0028 8.26673 34.1259 10.8455 30.9887 11.8195C22.6132 14.4236 16.9498 19.3755 16.7825 27.7816C16.6213 35.8837 14.6047 65.9527 22.9087 78.6914C31.0912 91.2443 59.0125 87.5818 72.1908 85.842C85.7387 84.0515 117.102 79.8907 120.875 64.303C124.804 48.0735 108.916 17.8947 105.157 9.77567Z" fill="white"/>
<path d="M99.3166 14.8675C96.0145 7.68011 88.944 5.68482 80.4998 6.75323C77.4126 7.14451 67.2896 9.1148 57.3313 11.2017C47.5876 13.2996 38.1388 15.4808 35.4081 16.3133C28.1047 18.5389 23.1565 22.8153 23.009 30.1165C22.8668 37.1513 21.0992 63.2758 28.3557 74.3123C35.4898 85.1628 59.7132 81.8411 71.0791 80.2731C82.719 78.6664 109.494 74.9561 112.696 61.5969C116.027 47.7077 102.521 21.8441 99.3166 14.8675Z" fill="#0E0F0E"/>
<path d="M97.6331 16.3369C94.4938 9.48624 87.7695 7.57391 79.7325 8.57706C76.7931 8.9446 67.1468 10.8044 57.6487 12.7803C48.3459 14.7673 39.3168 16.8343 36.7053 17.6274C29.7191 19.7415 24.9824 23.8232 24.8408 30.7982C24.7048 37.5217 23.0108 62.487 29.9572 73.0242C36.7819 83.3761 59.9209 80.1622 70.7595 78.6478C81.847 77.1003 107.304 73.5271 110.344 60.8123C113.504 47.5974 100.678 22.9803 97.6331 16.3369Z" fill="#1B1C20"/>
<path d="M86.0891 38.1796C85.7739 38.2347 85.4984 38.3641 85.2661 38.5403C84.0167 36.1972 81.1804 34.8288 78.2593 35.3602C74.7766 35.9935 72.4902 39.0882 73.131 42.2794C73.7727 45.476 77.1112 47.5933 80.6099 47.0013C83.6148 46.492 85.7532 44.1516 85.9119 41.4644C86.1814 41.5332 86.4698 41.5552 86.7649 41.5029C87.7749 41.3267 88.443 40.4401 88.2556 39.5178C88.0686 38.5981 87.0974 38.0006 86.0891 38.1796Z" fill="#F0532D"/>
<path d="M41.716 46.0519C42.0033 46.0023 42.2846 46.0298 42.5447 46.1097C42.7665 43.6179 44.7011 41.4593 47.4239 40.9637C50.7126 40.3662 53.8957 42.4175 54.5134 45.5508C55.1319 48.6868 52.9389 51.688 49.6359 52.2469C46.8359 52.7205 44.1495 51.2832 43.0461 48.9264C42.8422 49.0751 42.6045 49.1852 42.3356 49.232C41.4171 49.3917 40.5352 48.8107 40.3647 47.9324C40.1944 47.0568 40.7986 46.2143 41.716 46.0519Z" fill="#F0532D"/>
<path d="M65.3507 140.901L49.3594 138.319L53.1051 123.756L66.3888 125.904L65.3507 140.901Z" fill="#1B1C20"/>
<path d="M50.0865 123.572C49.4104 127.748 53.1642 131.832 58.4709 132.688C63.7779 133.547 68.6279 130.854 69.304 126.677C69.9801 122.501 66.226 118.417 60.9193 117.561C55.6126 116.702 50.7626 119.395 50.0865 123.572Z" fill="white"/>
<path d="M66.8147 120.336C67.5222 121.631 67.8285 123.06 67.5946 124.505C66.9186 128.685 62.0686 131.375 56.7616 130.516C54.406 130.136 52.3593 129.117 50.8672 127.74C52.2045 130.185 55.0011 132.129 58.4719 132.688C63.7789 133.547 68.6289 130.854 69.305 126.677C69.6808 124.354 68.6837 122.063 66.8147 120.336Z" fill="#DBDEE8"/>
<path d="M69.3825 149.253L69.3811 149.244C69.4536 148.784 70.0738 144.324 68.4453 139.228C67.3559 135.819 66.6561 135.015 66.2988 134.872C65.6288 136.904 61.8395 137.978 57.5329 137.284C53.2931 136.598 50.0631 134.442 49.9695 132.333C49.4873 132.534 48.5575 133.308 46.7935 135.728C43.6403 140.051 42.8226 144.478 42.746 144.938L42.7422 144.946L42.7436 144.955L42.7425 144.96H42.7447C42.6179 146.064 69.1475 150.354 69.3754 149.266H69.3776L69.3787 149.258L69.3825 149.253Z" fill="white"/>
<path d="M67.727 137.19C67.0413 135.472 66.5727 134.982 66.3016 134.872C65.6316 136.904 61.8423 137.978 57.5356 137.284C53.2959 136.598 50.0659 134.442 49.9722 132.333C49.6265 132.476 49.0493 132.92 48.1016 134.049C49.7102 136.042 53.6334 139.393 61.6467 138.972C64.1025 138.842 66.101 138.168 67.727 137.19Z" fill="#DBDEE8"/>
<path d="M154.146 44.5349C145.6 42.2304 136.802 47.2828 134.494 55.8236C133.65 58.9514 133.795 62.1095 134.735 64.973L130.906 73.401L140.009 72.553C141.668 73.8691 143.615 74.8768 145.79 75.4633C154.336 77.7706 163.135 72.7154 165.442 64.1745C167.75 55.6337 162.692 46.8422 154.146 44.5349Z" fill="white"/>
<path d="M160.877 48.2657C164.52 52.1782 166.125 57.8226 164.628 63.3623C162.321 71.9032 153.522 76.9556 144.976 74.651C142.801 74.0646 140.854 73.0541 139.194 71.738L131.328 72.4731L130.906 73.401L140.009 72.553C141.668 73.8691 143.615 74.8768 145.79 75.4633C154.336 77.7706 163.135 72.7154 165.442 64.1745C167.046 58.2383 165.089 52.181 160.877 48.2657Z" fill="#DBDEE8"/>
<path d="M148.64 61.4694C148.627 61.3894 148.613 61.3027 148.6 61.2094C148.6 61.116 148.6 61.0227 148.6 60.9294C148.6 60.516 148.667 60.1494 148.8 59.8294C148.933 59.5094 149.107 59.2227 149.32 58.9694C149.547 58.7027 149.78 58.456 150.02 58.2294C150.273 58.0027 150.52 57.7827 150.76 57.5694C150.973 57.3827 151.16 57.196 151.32 57.0094C151.493 56.8094 151.633 56.6094 151.74 56.4094C151.847 56.196 151.9 55.9827 151.9 55.7694C151.9 55.4894 151.827 55.2494 151.68 55.0494C151.547 54.836 151.353 54.676 151.1 54.5694C150.86 54.4627 150.553 54.4094 150.18 54.4094C149.82 54.4094 149.5 54.4694 149.22 54.5894C148.94 54.696 148.72 54.856 148.56 55.0694C148.4 55.2827 148.3 55.5427 148.26 55.8494H145.5C145.527 55.0894 145.673 54.4494 145.94 53.9294C146.207 53.4094 146.56 52.996 147 52.6894C147.44 52.3694 147.933 52.1427 148.48 52.0094C149.04 51.8627 149.613 51.7894 150.2 51.7894C150.973 51.7894 151.707 51.9227 152.4 52.1894C153.093 52.4427 153.653 52.8427 154.08 53.3894C154.52 53.936 154.74 54.6627 154.74 55.5694C154.74 56.0494 154.66 56.476 154.5 56.8494C154.34 57.2227 154.12 57.576 153.84 57.9094C153.56 58.2427 153.24 58.5827 152.88 58.9294C152.653 59.156 152.427 59.376 152.2 59.5894C151.973 59.8027 151.78 60.0294 151.62 60.2694C151.46 60.5094 151.36 60.8094 151.32 61.1694C151.32 61.2094 151.313 61.256 151.3 61.3094C151.3 61.3627 151.3 61.416 151.3 61.4694H148.64ZM149.98 66.2894C149.527 66.2894 149.12 66.1427 148.76 65.8494C148.413 65.5427 148.24 65.096 148.24 64.5094C148.24 63.9494 148.413 63.5294 148.76 63.2494C149.12 62.956 149.527 62.8094 149.98 62.8094C150.447 62.8094 150.853 62.956 151.2 63.2494C151.547 63.5294 151.72 63.9494 151.72 64.5094C151.72 65.096 151.547 65.5427 151.2 65.8494C150.853 66.1427 150.447 66.2894 149.98 66.2894Z" fill="#F0532D"/>
</svg>
