<svg width="100" height="129" viewBox="0 0 100 129" fill="none" xmlns="http://www.w3.org/2000/svg">
<path d="M38.679 129C31.9124 129 26.4258 128.224 26.4258 127.265C26.4258 126.307 31.9124 125.53 38.679 125.53C45.4456 125.53 50.9322 126.307 50.9322 127.265C50.9322 128.224 45.4456 129 38.679 129Z" fill="#353639"/>
<path d="M74.3877 128.552C67.6211 128.552 62.1367 127.775 62.1367 126.817C62.1367 125.858 67.6211 125.082 74.3877 125.082C81.1565 125.082 86.641 125.858 86.641 126.817C86.641 127.775 81.1565 128.552 74.3877 128.552Z" fill="#353639"/>
<path d="M36.6622 105.321H36.4429C33.2699 105.321 30.7727 102.562 31.039 99.3444L31.1486 97.9988C31.3836 95.1413 33.7331 92.9419 36.5525 92.9419C39.3719 92.9419 41.7214 95.1413 41.9564 97.9988L42.066 99.3444C42.3301 102.562 39.8351 105.321 36.6622 105.321Z" fill="#1B1C20"/>
<path d="M43.1299 118.779H29.9727L31.087 106.398H42.0156L43.1299 118.779Z" fill="#1B1C20"/>
<path d="M28.6445 106.646C28.6445 110.145 32.1844 112.982 36.5501 112.982C40.9157 112.982 44.4556 110.145 44.4556 106.646C44.4556 103.147 40.9157 100.31 36.5501 100.31C32.1844 100.31 28.6445 103.147 28.6445 106.646Z" fill="white"/>
<path d="M41.6383 101.799C42.3723 102.759 42.8041 103.886 42.8041 105.098C42.8041 108.597 39.2642 111.434 34.8986 111.434C32.9608 111.434 31.1886 110.874 29.8125 109.945C31.2021 111.764 33.697 112.982 36.5522 112.982C40.9178 112.982 44.4578 110.145 44.4578 106.646C44.4578 104.699 43.3613 102.96 41.6383 101.799Z" fill="#DBDEE8"/>
<path d="M47.5135 126.286L47.5113 126.279C47.509 125.833 47.4285 121.534 45.4616 116.976C44.1437 113.925 43.4791 113.276 43.1748 113.194C42.9018 115.214 40.0018 116.805 36.4597 116.805C32.9712 116.805 30.1003 115.264 29.7535 113.29C29.391 113.554 28.7466 114.426 27.6457 116.976C25.6788 121.534 25.5982 125.833 25.596 126.279L25.5938 126.286L25.596 126.295V126.3H25.5982C25.6407 127.361 47.4665 127.361 47.5091 126.3H47.5113V126.295L47.5135 126.286Z" fill="white"/>
<path d="M60.7009 107.329L60.5107 107.443C57.7785 109.082 54.252 107.994 52.8736 105.087L52.2963 103.871C51.0724 101.287 51.9987 98.1787 54.4266 96.7215C56.8566 95.2643 59.9781 95.9451 61.6071 98.2857L62.3724 99.3877C64.2072 102.022 63.4352 105.69 60.7009 107.329Z" fill="#1B1C20"/>
<path d="M75.6742 108.035L68.0908 118.975L58.7891 110.915L65.088 101.826L75.6742 108.035Z" fill="#1B1C20"/>
<path d="M57.5836 113.087C60.3941 115.105 64.7127 113.795 67.2278 110.164C69.7451 106.532 69.5057 101.956 66.6952 99.9386C63.8848 97.9213 59.5661 99.2305 57.0488 102.862C54.5337 106.491 54.7732 111.07 57.5836 113.087Z" fill="white"/>
<path d="M61.1731 99.4901C62.368 99.4332 63.5226 99.7246 64.496 100.421C67.3064 102.439 67.5436 107.015 65.0285 110.647C63.9119 112.259 62.4396 113.411 60.9023 114.019C63.1623 113.912 65.579 112.539 67.2236 110.164C69.741 106.532 69.5015 101.956 66.6911 99.9386C65.127 98.8161 63.0997 98.7274 61.1731 99.4901Z" fill="#DBDEE8"/>
<path d="M84.2281 108.718L84.2214 108.716C83.8634 108.461 80.3637 106.049 75.5685 105.059C72.3597 104.396 71.4557 104.574 71.2141 104.781C72.6775 106.172 72.2859 109.499 70.243 112.445C68.2336 115.346 65.3425 116.844 63.5547 115.997C63.5592 116.448 63.8881 117.488 65.3023 119.872C67.8308 124.134 71.2364 126.68 71.5945 126.937L71.5989 126.944L71.6057 126.946L71.6101 126.951L71.6124 126.948C72.4873 127.525 85.065 109.374 84.237 108.729L84.2393 108.727L84.2348 108.725L84.2281 108.718Z" fill="white"/>
<path d="M44.6149 115.164C43.8429 113.647 43.4021 113.256 43.1716 113.194C42.8986 115.214 39.9987 116.805 36.4565 116.805C32.9681 116.805 30.0972 115.264 29.7504 113.29C29.4908 113.479 29.0858 113.984 28.4727 115.191C30.0211 116.826 33.6013 119.389 39.9718 117.771C41.923 117.274 43.4379 116.332 44.6149 115.164Z" fill="#DBDEE8"/>
<path d="M73.6246 104.718C71.962 104.485 71.3937 104.627 71.2102 104.784C72.6758 106.175 72.282 109.501 70.2413 112.447C68.2297 115.348 65.3386 116.846 63.5508 115.999C63.5553 116.323 63.7275 116.951 64.3429 118.158C66.5492 117.812 70.6709 116.311 73.0405 110.082C73.7678 108.172 73.8841 106.368 73.6246 104.718Z" fill="#DBDEE8"/>
<path d="M20.5859 82.7964L26.8692 85.9338L29.485 82.9398C29.485 82.9398 28.977 81.3437 25.3096 79.775C21.6421 78.204 20.5859 82.7964 20.5859 82.7964Z" fill="#1B1C20"/>
<path d="M22.4497 84.4812C22.4497 84.4812 14.938 81.0068 11.1877 75.4399C7.43749 69.8753 6.97878 64.4223 8.60329 61.5626C10.653 57.9584 13.7051 58.9352 15.0074 59.6683C20.2837 62.6373 24.3696 73.7619 25.1886 79.479C25.5891 81.2299 23.5842 79.841 23.4387 81.4143C23.2955 82.9876 23.5327 84.611 22.4497 84.4812Z" fill="white"/>
<path d="M24.1159 80.5854C22.8718 74.6042 19.0432 65.0552 14.2122 62.3367C12.9121 61.6035 9.86 60.6268 7.81033 64.231L7.78125 64.2856C7.89984 63.2337 8.17953 62.3071 8.60244 61.5625C10.6521 57.9583 13.7042 58.9351 15.0065 59.6682C20.2828 62.6372 24.3687 73.7618 25.1877 79.4789C25.445 80.6037 24.7134 80.4352 24.1159 80.5854Z" fill="#DBDEE8"/>
<path d="M11.7762 62.3664C11.9955 61.5217 11.7449 60.6974 11.219 60.5267C10.691 60.3559 10.0868 60.9001 9.86751 61.7448C9.65046 62.5895 9.89884 63.4114 10.4269 63.5845C10.9528 63.7552 11.5592 63.2088 11.7762 62.3664Z" fill="#1B1C20"/>
<path d="M77.4498 82.7964L71.1666 85.9338L68.5508 82.9398C68.5508 82.9398 69.0587 81.3437 72.7262 79.775C76.3936 78.204 77.4498 82.7964 77.4498 82.7964Z" fill="#1B1C20"/>
<path d="M75.5846 84.4812C75.5846 84.4812 83.0963 81.0068 86.8466 75.4399C90.5968 69.8753 91.0578 64.4223 89.431 61.5626C87.3814 57.9584 84.3293 58.9352 83.027 59.6683C77.7506 62.6373 73.6647 73.7619 72.8458 79.479C72.4452 81.2299 74.4502 79.841 74.5956 81.4143C74.7388 82.9876 74.5016 84.611 75.5846 84.4812Z" fill="white"/>
<path d="M73.9178 80.5854C75.1619 74.6042 78.9905 65.0552 83.8215 62.3367C85.1216 61.6035 88.1737 60.6268 90.2256 64.231L90.2524 64.2856C90.1339 63.2337 89.8542 62.3071 89.4313 61.5625C87.3816 57.9583 84.3295 58.9351 83.0272 59.6682C77.7509 62.6372 73.6649 73.7618 72.846 79.4789C72.5887 80.6037 73.3203 80.4352 73.9178 80.5854Z" fill="#DBDEE8"/>
<path d="M86.263 62.3664C86.0437 61.5217 86.2944 60.6974 86.8202 60.5267C87.3483 60.3559 87.9524 60.9001 88.1717 61.7448C88.391 62.5895 88.1404 63.4114 87.6123 63.5845C87.0865 63.7552 86.4801 63.2088 86.263 62.3664Z" fill="#1B1C20"/>
<path d="M72.3622 84.9798C70.9727 73.0515 61.0398 66.1823 49.2386 66.1709C37.4374 66.1823 27.5068 73.0515 26.115 84.9798L24.6203 98.1399C24.5487 98.7774 25.0364 99.3352 25.6652 99.3352H72.812C73.4407 99.3352 73.9286 98.7774 73.8569 98.1399L72.3622 84.9798Z" fill="white"/>
<path d="M52.5626 83.204C52.5626 85.1606 51.0998 86.43 49.3575 86.43C47.6151 86.43 46.1523 85.1606 46.1523 83.204C46.1523 81.2474 47.6151 79.98 49.3575 79.98C51.0998 79.98 52.5626 81.2812 52.5626 83.2059V83.204Z" fill="#F0532D"/>
<path d="M58.9751 83.2009V83.2103C58.9751 83.5333 58.9433 83.8583 58.8698 84.1699C58.8013 84.459 58.696 84.7348 58.5524 84.986C58.4103 85.2316 58.2316 85.4488 58.0294 85.6283C57.8105 85.8229 57.5632 85.974 57.3059 86.0892C56.9835 86.2328 56.6443 86.3197 56.3001 86.3726C56.0863 86.4047 55.8691 86.4236 55.6535 86.4292C55.5449 86.4311 55.4347 86.4292 55.3261 86.4255C55.301 86.4255 55.2709 86.4236 55.2442 86.4179C55.184 86.4066 55.1289 86.3763 55.1289 86.2932V80.118C55.1289 80.0348 55.184 80.0046 55.2442 79.9933C55.2726 79.9876 55.301 79.9857 55.3261 79.9857C55.4347 79.9801 55.5449 79.9782 55.6535 79.9819C55.8707 79.9876 56.0863 80.0065 56.3001 80.0386C56.6426 80.0915 56.9818 80.1784 57.3059 80.322C57.5632 80.4372 57.8105 80.5883 58.0294 80.7829C58.2332 80.9624 58.4103 81.1796 58.5524 81.4252C58.696 81.6764 58.8013 81.9522 58.8698 82.2412C58.9433 82.5548 58.9751 82.8778 58.9751 83.2009Z" fill="#F0532D"/>
<path d="M39.7422 83.2091V83.1996C39.7422 82.8766 39.7739 82.5517 39.8474 82.24C39.9159 81.951 40.0212 81.6752 40.1649 81.4239C40.3069 81.1784 40.4857 80.9611 40.6879 80.7817C40.9067 80.5871 41.154 80.436 41.4113 80.3207C41.7338 80.1772 42.0729 80.0903 42.4171 80.0374C42.631 80.0053 42.8482 79.9864 43.0637 79.9807C43.1723 79.9788 43.2826 79.9807 43.3912 79.9845C43.4163 79.9845 43.4463 79.9864 43.4731 79.9921C43.5332 80.0034 43.5883 80.0336 43.5883 80.1167V86.292C43.5883 86.3751 43.5332 86.4053 43.4731 86.4167C43.4447 86.4223 43.4163 86.4242 43.3912 86.4242C43.2826 86.4299 43.1723 86.4318 43.0637 86.428C42.8465 86.4223 42.631 86.4035 42.4171 86.3713C42.0746 86.3185 41.7354 86.2316 41.4113 86.088C41.154 85.9728 40.9067 85.8216 40.6879 85.6271C40.484 85.4476 40.3069 85.2304 40.1649 84.9848C40.0212 84.7335 39.9159 84.4577 39.8474 84.1687C39.7739 83.8551 39.7422 83.5321 39.7422 83.2091Z" fill="#F0532D"/>
<path d="M73.8582 98.1399L72.3635 84.9798C71.6251 78.657 68.4879 73.755 63.9411 70.5424C63.8023 70.4422 63.6591 70.3489 63.5159 70.2533C63.3928 70.1713 63.272 70.087 63.149 70.0074C63.008 69.9163 62.8625 69.8298 62.7171 69.7433C62.5873 69.6636 62.4598 69.5839 62.3277 69.5087C62.1845 69.4245 62.0369 69.3448 61.8914 69.2628C61.7549 69.1877 61.6207 69.1126 61.4819 69.0397C61.3365 68.9646 61.1866 68.8894 61.0389 68.8166C60.8957 68.746 60.7547 68.6754 60.6115 68.6071C60.4638 68.5365 60.3117 68.4705 60.1617 68.4022C60.014 68.3362 59.8664 68.2701 59.7164 68.2087C59.5665 68.1449 59.4121 68.0834 59.26 68.022C59.1078 67.9605 58.9557 67.9013 58.8013 67.8444C58.6469 67.7852 58.4924 67.7305 58.3358 67.6759C58.1792 67.6212 58.0203 67.5666 57.8615 67.5142C57.7071 67.4619 57.5504 67.414 57.3938 67.3662C57.2304 67.3139 57.0671 67.2661 56.9015 67.2182C56.7449 67.175 56.5905 67.1317 56.4316 67.0907C56.2638 67.0452 56.0915 67.0019 55.9214 66.961C55.7648 66.9223 55.6082 66.8835 55.4515 66.8494C55.2748 66.8107 55.098 66.772 54.9212 66.7378C54.7646 66.706 54.6102 66.6741 54.4535 66.6445C54.2701 66.6103 54.0843 66.5807 53.9009 66.5511C53.7465 66.5238 53.5943 66.4988 53.4377 66.476C53.2452 66.4487 53.0528 66.4236 52.8581 66.3986C52.7082 66.3804 52.5605 66.3599 52.4084 66.3439C52.2047 66.3212 51.9966 66.3052 51.7908 66.287C51.6498 66.2733 51.5066 66.2597 51.3634 66.2483C51.1307 66.2324 50.8957 66.221 50.6608 66.2096C50.5444 66.2028 50.4281 66.1959 50.3095 66.1914C49.9537 66.1777 49.5979 66.1709 49.2399 66.1709C48.817 66.1709 48.3985 66.1823 47.9801 66.2005C47.9421 66.2028 47.904 66.205 47.866 66.2073C42.8179 66.4441 38.1703 67.9537 34.4648 70.5948C55.8521 65.5653 65.8072 76.4144 67.0447 83.8459C67.1073 84.2193 67.161 84.5973 67.2058 84.9798L68.7005 98.1399C68.7721 98.7774 68.2843 99.3352 67.6533 99.3352H72.8132C73.442 99.3352 73.9298 98.7774 73.8582 98.1399Z" fill="#DBDEE8"/>
<path d="M6.47571 27.1255L6.74645 27.6765C7.22307 28.6418 6.82701 29.819 5.86259 30.3039C4.90265 30.7843 3.74581 30.3904 3.2759 29.4296L3.00739 28.8809C2.53749 27.9201 2.92906 26.7498 3.88229 26.2648C4.84 25.7776 6.00133 26.1601 6.47571 27.1255Z" fill="#111212"/>
<path d="M15.7612 29.309C14.7453 33.676 11.5097 36.6336 8.55601 35.9346C5.6292 35.2447 4.07181 31.2193 5.04965 26.9252C6.03421 22.6197 9.21163 19.6143 12.172 20.2313C15.1615 20.8574 16.7793 24.9284 15.7612 29.309Z" fill="white"/>
<path d="M16.1149 29.4365C14.9983 34.2338 12.161 37.649 9.78913 37.0866C7.43738 36.5265 6.41927 32.2529 7.50452 27.5194C8.59201 22.7699 11.3958 19.3046 13.7811 19.801C16.1843 20.2996 17.2337 24.6233 16.1149 29.4365Z" fill="#1B1C20"/>
<path d="M4.61399 27.0163L1.04723 16.3926L0 16.7114L3.75027 28.4644L4.61399 27.0163Z" fill="#111212"/>
<path d="M3.73138 30.0353C3.71795 30.2334 3.85445 30.4018 4.03346 30.4132C4.21471 30.4246 4.37356 30.2743 4.38475 30.0762C4.39818 29.8759 4.26169 29.7074 4.08044 29.696C3.89919 29.6846 3.74257 29.8372 3.73138 30.0353Z" fill="#F0532D"/>
<path d="M86.7994 12.4329C85.6088 4.8963 79.4788 1.48798 71.2827 0.710327C68.2982 0.428802 58.4036 0.154182 48.7198 0.0272675C39.315 -0.0442657 30.2414 0.0249786 27.5857 0.230354C20.5168 0.779556 15.1057 3.70327 13.271 10.3745C11.5134 16.7688 3.97961 39.9578 7.78734 51.3804C11.5157 62.5837 33.5819 65.129 44.0934 66.3359C54.9655 67.582 80.3905 70.478 86.8833 59.0231C93.7164 46.9637 87.9492 19.7249 86.7994 12.4329Z" fill="white"/>
<path d="M76.3079 15.5752C75.3136 9.16771 70.1764 6.23512 63.288 5.52419C60.7754 5.26442 52.4135 4.96819 44.1927 4.7973C36.1779 4.67653 28.4117 4.67653 26.132 4.83831C20.0543 5.26669 15.3897 7.75497 13.8019 13.504C12.2836 19.0205 5.75578 39.0611 9.05665 48.9321C12.2859 58.5957 31.2759 60.6579 40.2559 61.6263C49.5001 62.6244 70.9423 64.9212 76.3773 55.1482C82.0832 44.8875 77.2708 21.7708 76.3079 15.5752Z" fill="#0E0F0E"/>
<path d="M74.6466 16.438C73.7046 10.343 68.8243 7.54246 62.2792 6.85258C59.8895 6.59985 51.9325 6.29931 44.1008 6.12399C36.4548 5.99194 29.0371 5.976 26.8599 6.12399C21.0443 6.52244 16.5802 8.89034 15.0609 14.3821C13.6042 19.6506 7.35228 38.8079 10.514 48.2431C13.6087 57.4779 31.7737 59.4109 40.346 60.3194C49.1556 61.2506 69.5538 63.3954 74.7137 54.0854C80.1265 44.3178 75.5595 22.335 74.6466 16.438Z" fill="#1B1C20"/>
<path d="M81.2812 33.7311C81.8599 39.164 85.1365 43.3801 88.6269 43.1372C92.1535 42.8898 94.5495 38.1947 93.9482 32.6588C93.3447 27.1342 89.9916 22.9479 86.4854 23.2962C83.0174 23.6399 80.6979 28.3074 81.2812 33.7311Z" fill="#1B1C20"/>
<path d="M83.2319 33.5162C83.7635 38.4773 87.2942 42.2826 91.1588 42.0075C95.0689 41.7277 97.8203 37.3908 97.266 32.3279C96.7116 27.272 93.081 23.4922 89.1959 23.8737C85.3516 24.2505 82.7002 28.562 83.2319 33.5162Z" fill="white"/>
<path d="M92.0664 31.3648L98.6345 19.5913L99.9989 20.061L92.9485 33.1321L92.0664 31.3648Z" fill="#111212"/>
<path d="M92.7035 34.9281C92.6878 35.1561 92.4794 35.3294 92.2396 35.3134C92.0021 35.2998 91.8251 35.1037 91.8408 34.8757C91.8587 34.6477 92.0626 34.4767 92.3024 34.4904C92.5399 34.504 92.7214 34.7001 92.7035 34.9281Z" fill="#F0532D"/>
<path d="M89.634 31.2362L89.1902 31.8207C88.4176 32.8429 88.7285 34.2272 89.8862 34.9125C91.0485 35.6023 92.6252 35.3319 93.4068 34.3051L93.8528 33.7184C94.6389 32.687 94.3236 31.2935 93.1501 30.6082C91.9833 29.9252 90.4066 30.2094 89.634 31.2362Z" fill="#111212"/>
<path d="M58.913 31.9107C58.6879 31.8902 58.4763 31.9287 58.2856 32.0079C57.8622 30.1476 56.1778 28.6686 54.0878 28.4933C51.5961 28.2842 49.47 30.0075 49.323 32.3434C49.1757 34.6831 51.0656 36.7759 53.5606 37.0167C55.7037 37.2229 57.5908 35.996 58.1909 34.1591C58.3621 34.2571 58.5549 34.3262 58.7657 34.3448C59.487 34.4106 60.105 33.9194 60.146 33.2438C60.1867 32.5703 59.6336 31.9743 58.913 31.9107Z" fill="#F0532D"/>
<path d="M27.002 29.0953C27.2071 29.1144 27.3939 29.186 27.5567 29.2899C28.1641 27.6006 29.8789 26.4618 31.827 26.625C34.1798 26.8229 35.9758 28.8408 35.8237 31.1321C35.6716 33.4255 33.6263 35.1013 31.2708 34.8739C29.2741 34.6811 27.7045 33.1822 27.3832 31.3396C27.2169 31.4049 27.0346 31.4371 26.8426 31.4195C26.1867 31.3592 25.6915 30.7914 25.7359 30.1496C25.78 29.5097 26.3464 29.0372 27.002 29.0953Z" fill="#F0532D"/>
</svg>
