<svg width="64" height="64" viewBox="0 0 64 64" fill="none" xmlns="http://www.w3.org/2000/svg">
<circle cx="32" cy="32" r="8" stroke="#F0532D" stroke-width="2.5"/>
<path d="M36.7089 5.73923C35.7288 5.33325 34.4863 5.33325 32.0013 5.33325C29.5162 5.33325 28.2737 5.33325 27.2936 5.73923C25.9868 6.28053 24.9485 7.31879 24.4072 8.62561C24.1601 9.22216 24.0634 9.91592 24.0256 10.9279C23.97 12.4151 23.2073 13.7916 21.9185 14.5357C20.6297 15.2798 19.0562 15.252 17.7405 14.5566C16.8452 14.0834 16.196 13.8202 15.5558 13.736C14.1534 13.5513 12.7351 13.9314 11.6129 14.7925C10.7713 15.4383 10.15 16.5143 8.90752 18.6664C7.66501 20.8185 7.04376 21.8945 6.90528 22.9463C6.72066 24.3487 7.10069 25.767 7.96177 26.8892C8.3548 27.4014 8.90718 27.832 9.76446 28.3707C11.0248 29.1625 11.8357 30.5115 11.8356 32C11.8355 33.4883 11.0246 34.8371 9.76446 35.6288C8.90703 36.1676 8.35458 36.5982 7.96151 37.1105C7.10043 38.2326 6.7204 39.6509 6.90502 41.0533C7.04349 42.1051 7.66475 43.1812 8.90726 45.3333C10.1498 47.4853 10.771 48.5614 11.6127 49.2072C12.7349 50.0683 14.1531 50.4483 15.5555 50.2637C16.1957 50.1794 16.8448 49.9163 17.7401 49.4431C19.0559 48.7477 20.6295 48.7199 21.9184 49.464C23.2073 50.2082 23.97 51.5848 24.0256 53.0721C24.0635 54.084 24.1602 54.7777 24.4072 55.3742C24.9485 56.6811 25.9868 57.7193 27.2936 58.2606C28.2737 58.6666 29.5162 58.6666 32.0013 58.6666C34.4863 58.6666 35.7288 58.6666 36.7089 58.2606C38.0157 57.7193 39.054 56.6811 39.5953 55.3742C39.8424 54.7777 39.9391 54.0839 39.9769 53.0719C40.0325 51.5847 40.7952 50.2082 42.0839 49.464C43.3728 48.7198 44.9464 48.7475 46.2623 49.443C47.1575 49.9161 47.8066 50.1792 48.4467 50.2635C49.8491 50.4481 51.2674 50.0681 52.3896 49.207C53.2312 48.5612 53.8525 47.4852 55.095 45.3331C56.3375 43.181 56.9588 42.1049 57.0973 41.0531C57.2819 39.6508 56.9019 38.2325 56.0408 37.1103C55.6477 36.598 55.0953 36.1674 54.2379 35.6287C52.9777 34.8369 52.1669 33.488 52.1669 31.9997C52.167 30.5115 52.9778 29.1628 54.2379 28.3711C55.0954 27.8323 55.6479 27.4017 56.041 26.8894C56.9021 25.7672 57.2821 24.3489 57.0975 22.9465C56.959 21.8947 56.3378 20.8187 55.0953 18.6666C53.8528 16.5145 53.2315 15.4384 52.3899 14.7926C51.2677 13.9315 49.8494 13.5515 48.447 13.7361C47.8069 13.8204 47.1577 14.0835 46.2625 14.5567C44.9466 15.2522 43.3731 15.28 42.0842 14.5358C40.7953 13.7917 40.0326 12.415 39.9769 10.9278C39.9391 9.91586 39.8424 9.22213 39.5953 8.62561C39.054 7.31879 38.0157 6.28053 36.7089 5.73923Z" stroke="#F0532D" stroke-width="2.5"/>
</svg>
