<svg width="134" height="73" viewBox="0 0 134 73" fill="none" xmlns="http://www.w3.org/2000/svg">
<g id="stripe_logo.svg" clip-path="url(#clip0_248_17462)">
<g id="Group">
<path id="Vector" fill-rule="evenodd" clip-rule="evenodd" d="M116.189 36.5505C116.189 28.324 112.215 21.8328 104.619 21.8328C96.9904 21.8328 92.375 28.324 92.375 36.4862C92.375 46.1588 97.8237 51.0433 105.644 51.0433C109.458 51.0433 112.343 50.1757 114.522 48.9546V42.5276C112.343 43.6202 109.843 44.295 106.67 44.295C103.561 44.295 100.804 43.2024 100.452 39.4105H116.125C116.125 38.9928 116.189 37.3218 116.189 36.5505ZM100.356 33.4977C100.356 29.8665 102.567 28.3561 104.587 28.3561C106.542 28.3561 108.625 29.8665 108.625 33.4977H100.356Z" fill="#0A2540"/>
<path id="Vector_2" fill-rule="evenodd" clip-rule="evenodd" d="M80 21.833C76.859 21.833 74.8397 23.3112 73.7179 24.3395L73.3013 22.3472H66.25V59.8164L74.2628 58.1132L74.2949 49.0191C75.4487 49.8546 77.1474 51.0436 79.9679 51.0436C85.7051 51.0436 90.9295 46.4162 90.9295 36.2294C90.8974 26.9103 85.609 21.833 80 21.833ZM78.0769 43.9739C76.1859 43.9739 75.0641 43.2991 74.2949 42.4636L74.2628 30.5415C75.0962 29.6096 76.25 28.9669 78.0769 28.9669C80.9936 28.9669 83.0128 32.2447 83.0128 36.4544C83.0128 40.7604 81.0256 43.9739 78.0769 43.9739Z" fill="#0A2540"/>
<path id="Vector_3" fill-rule="evenodd" clip-rule="evenodd" d="M55.2266 19.9369L63.2714 18.2016V11.6782L55.2266 13.3814V19.9369Z" fill="#0A2540"/>
<path id="Vector_4" d="M63.2714 22.3789H55.2266V50.4969H63.2714V22.3789Z" fill="#0A2540"/>
<path id="Vector_5" fill-rule="evenodd" clip-rule="evenodd" d="M46.6078 24.757L46.095 22.379H39.1719V50.497H47.1847V31.4411C49.0757 28.9667 52.2808 29.4166 53.2744 29.7701V22.379C52.2488 21.9934 48.4988 21.2865 46.6078 24.757Z" fill="#0A2540"/>
<path id="Vector_6" fill-rule="evenodd" clip-rule="evenodd" d="M30.5791 15.4058L22.7586 17.0768L22.7266 42.8168C22.7266 47.5727 26.2843 51.0754 31.0278 51.0754C33.6561 51.0754 35.5791 50.5934 36.6368 50.015V43.4916C35.6112 43.9094 30.5471 45.3876 30.5471 40.6316V29.2237H36.6368V22.379H30.5471L30.5791 15.4058Z" fill="#0A2540"/>
<path id="Vector_7" fill-rule="evenodd" clip-rule="evenodd" d="M8.91366 30.5413C8.91366 29.288 9.9393 28.806 11.638 28.806C14.0739 28.806 17.1508 29.5451 19.5867 30.8627V23.311C16.9265 22.2505 14.2983 21.8328 11.638 21.8328C5.13161 21.8328 0.804688 25.2391 0.804688 30.9269C0.804688 39.7961 12.9842 38.3822 12.9842 42.2062C12.9842 43.6844 11.7021 44.1665 9.90725 44.1665C7.247 44.1665 3.84956 43.0739 1.15725 41.5957V49.2438C4.13802 50.5292 7.15084 51.0755 9.90725 51.0755C16.5739 51.0755 21.1573 47.7656 21.1573 42.0134C21.1252 32.4373 8.91366 34.1404 8.91366 30.5413Z" fill="#0A2540"/>
</g>
</g>
<defs>
<clipPath id="clip0_248_17462">
<rect width="133" height="72" fill="white" transform="translate(0.5 0.109863)"/>
</clipPath>
</defs>
</svg>
