<svg width="48" height="48" viewBox="0 0 48 48" fill="none" xmlns="http://www.w3.org/2000/svg">
<g id="Help--Streamline-Solar-Broken">
<path id="Vector" d="M16.5 24C16.5 25.9891 17.2902 27.8968 18.6967 29.3033C20.1032 30.7098 22.0109 31.5 24 31.5C25.9891 31.5 27.8968 30.7098 29.3033 29.3033C30.7098 27.8968 31.5 25.9891 31.5 24C31.5 22.0109 30.7098 20.1032 29.3033 18.6967C27.8968 17.2902 25.9891 16.5 24 16.5C22.0109 16.5 20.1032 17.2902 18.6967 18.6967C17.2902 20.1032 16.5 22.0109 16.5 24Z" stroke="white" stroke-width="2"/>
<path id="Vector_2" d="M29.625 18.375L37.125 10.875" stroke="white" stroke-width="2"/>
<path id="Vector_3" d="M10.875 37.125L18.375 29.625" stroke="white" stroke-width="2"/>
<path id="Vector_4" d="M18.375 18.375L10.875 10.875" stroke="white" stroke-width="2"/>
<path id="Vector_5" d="M37.125 37.125L29.625 29.625" stroke="white" stroke-width="2"/>
<path id="Vector_6" d="M19.1449 5.88536C22.2217 5.05816 25.551 5.00493 28.8496 5.88884C38.8522 8.56901 44.7881 18.8503 42.108 28.8529C39.4278 38.8552 29.1465 44.7913 19.144 42.111C9.1415 39.4309 3.20558 29.1497 5.88573 19.1471C6.76964 15.8483 8.48034 12.9918 10.7351 10.7408" stroke="white" stroke-width="2" stroke-linecap="round"/>
</g>
</svg>
