<svg width="25" height="24" viewBox="0 0 25 24" fill="none" xmlns="http://www.w3.org/2000/svg">
<path id="Subtract" fill-rule="evenodd" clip-rule="evenodd" d="M24.0187 12C24.0187 18.6326 18.6419 24.0094 12.0094 24.0094C5.37677 24.0094 0 18.6326 0 12C0 5.36743 5.37677 -0.00933838 12.0094 -0.00933838C18.6419 -0.00933838 24.0187 5.36743 24.0187 12ZM12.4396 8.85738C11.2611 9.34374 8.92284 10.3352 5.42479 11.8691C4.8636 12.0935 4.5643 12.318 4.52689 12.5238C4.4774 12.8867 4.93716 13.0314 5.5597 13.2274C5.64303 13.2536 5.72928 13.2807 5.81761 13.3094C6.43492 13.5152 7.25799 13.7584 7.68823 13.7584C8.08106 13.7584 8.5113 13.6087 8.99766 13.272C12.2712 11.0647 13.9548 9.94234 14.067 9.92363C14.1419 9.90492 14.2354 9.88622 14.3102 9.94234C14.3746 9.99064 14.3697 10.0805 14.3671 10.1285C14.3667 10.1362 14.3663 10.1429 14.3663 10.1481C14.3257 10.3376 12.6992 11.8486 11.7388 12.7408C11.3717 13.0819 11.1019 13.3325 11.0553 13.3843C10.9632 13.479 10.8693 13.5688 10.7788 13.6553C10.2084 14.2008 9.77624 14.6142 10.7935 15.2923C11.341 15.6507 11.7667 15.9402 12.2031 16.237C12.5866 16.4979 12.9784 16.7643 13.4684 17.0881C13.6117 17.1796 13.749 17.2753 13.883 17.3688C14.3794 17.7149 14.8315 18.0302 15.3765 17.986C15.6945 17.9486 16.0312 17.6493 16.1995 16.7514C16.6111 14.6376 17.378 10.0172 17.5651 8.12784C17.5838 7.95948 17.5651 7.75372 17.5464 7.66019C17.5277 7.56665 17.4903 7.43571 17.378 7.34218C17.2284 7.22994 17.0039 7.21124 16.9104 7.21124C16.4614 7.22994 15.7693 7.47312 12.4396 8.85738Z" fill="#F0532D"/>
</svg>
