<svg width="24" height="24" viewBox="0 0 24 24" fill="none" xmlns="http://www.w3.org/2000/svg">
<g id="ic:outline-tiktok">
<path id="Vector" d="M16.5963 5.82C15.9128 5.03953 15.5361 4.0374 15.5363 3H12.4462V15.4C12.4229 16.0712 12.1398 16.7071 11.6566 17.1735C11.1733 17.6399 10.5278 17.9004 9.85625 17.9C8.43625 17.9 7.25625 16.74 7.25625 15.3C7.25625 13.58 8.91625 12.29 10.6263 12.82V9.66C7.17625 9.2 4.15625 11.88 4.15625 15.3C4.15625 18.63 6.91625 21 9.84625 21C12.9863 21 15.5363 18.45 15.5363 15.3V9.01C16.7892 9.90985 18.2936 10.3926 19.8363 10.39V7.3C19.8363 7.3 17.9563 7.39 16.5963 5.82Z" fill="#F0532D"/>
</g>
</svg>
