<svg width="16" height="17" viewBox="0 0 16 17" fill="none" xmlns="http://www.w3.org/2000/svg">
<g id="user" clip-path="url(#clip0_248_17702)">
<g id="Vector">
<path fill-rule="evenodd" clip-rule="evenodd" d="M7.99748 0.943359C6.24858 0.943359 4.83082 2.36112 4.83082 4.11003C4.83082 5.85893 6.24858 7.27669 7.99748 7.27669C9.74639 7.27669 11.1642 5.85893 11.1642 4.11003C11.1642 2.36112 9.74639 0.943359 7.99748 0.943359ZM5.83082 4.11003C5.83082 2.91341 6.80087 1.94336 7.99748 1.94336C9.1941 1.94336 10.1642 2.91341 10.1642 4.11003C10.1642 5.30664 9.1941 6.27669 7.99748 6.27669C6.80087 6.27669 5.83082 5.30664 5.83082 4.11003Z" fill="#717680"/>
<path fill-rule="evenodd" clip-rule="evenodd" d="M7.99749 8.27669C6.45512 8.27669 5.0341 8.62728 3.98112 9.21959C2.94381 9.80307 2.16415 10.6874 2.16415 11.7767L2.16411 11.8447C2.16335 12.6192 2.16241 13.5913 3.01509 14.2857C3.43474 14.6275 4.0218 14.8705 4.81496 15.031C5.61033 15.192 6.64697 15.2767 7.99749 15.2767C9.348 15.2767 10.3846 15.192 11.18 15.031C11.9732 14.8705 12.5602 14.6275 12.9799 14.2857C13.8326 13.5913 13.8316 12.6192 13.8309 11.8447L13.8308 11.7767C13.8308 10.6874 13.0512 9.80307 12.0139 9.21959C10.9609 8.62728 9.53985 8.27669 7.99749 8.27669ZM3.16415 11.7767C3.16415 11.2091 3.5784 10.5935 4.47138 10.0912C5.34868 9.59768 6.59433 9.27669 7.99749 9.27669C9.40064 9.27669 10.6463 9.59768 11.5236 10.0912C12.4166 10.5935 12.8308 11.2091 12.8308 11.7767C12.8308 12.6486 12.8039 13.1394 12.3484 13.5103C12.1014 13.7115 11.6885 13.9078 10.9816 14.0509C10.277 14.1935 9.31364 14.2767 7.99749 14.2767C6.68133 14.2767 5.71798 14.1935 5.01335 14.0509C4.3065 13.9078 3.89356 13.7115 3.64654 13.5103C3.19103 13.1394 3.16415 12.6486 3.16415 11.7767Z" fill="#717680"/>
</g>
</g>
<defs>
<clipPath id="clip0_248_17702">
<rect width="16" height="16" fill="white" transform="translate(0 0.109863)"/>
</clipPath>
</defs>
</svg>
