<svg width="49" height="48" viewBox="0 0 49 48" fill="none" xmlns="http://www.w3.org/2000/svg">
<g id="Card--Streamline-Solar-Broken">
<path id="Vector" d="M43.4141 24C43.4141 16.9289 43.4141 13.3934 41.2173 11.1967C39.0207 9 35.4851 9 28.4141 9H20.9141C13.843 9 10.3075 9 8.11076 11.1967C5.91406 13.3934 5.91406 16.9289 5.91406 24C5.91406 31.071 5.91406 34.6067 8.11076 36.8032C10.3075 39 13.843 39 20.9141 39H28.4141C35.4851 39 39.0207 39 41.2173 36.8032C42.4421 35.5785 42.9839 33.9377 43.2238 31.5" stroke="white" stroke-width="2" stroke-linecap="round"/>
<path id="Vector_2" d="M20.9141 31.5H13.4141" stroke="white" stroke-width="2" stroke-linecap="round"/>
<path id="Vector_3" d="M28.4141 31.5H25.6016" stroke="white" stroke-width="2" stroke-linecap="round"/>
<path id="Vector_4" d="M5.91406 20.25H15.2891M43.4141 20.25H22.7891" stroke="white" stroke-width="2" stroke-linecap="round"/>
</g>
</svg>
