<svg width="64" height="64" viewBox="0 0 64 64" fill="none" xmlns="http://www.w3.org/2000/svg">
<path d="M16 24.8889H26.6667" stroke="#F0532D" stroke-width="2.5" stroke-linecap="round" stroke-linejoin="round"/>
<path d="M55.5556 27.5557H48.6154C43.8572 27.5557 40 31.1374 40 35.5557C40 39.9739 43.8572 43.5557 48.6154 43.5557H55.5556C55.7778 43.5557 55.8889 43.5557 55.9827 43.55C57.4208 43.4624 58.5663 42.3988 58.6605 41.0634C58.6667 40.9763 58.6667 40.8731 58.6667 40.6668V30.4446C58.6667 30.2382 58.6667 30.135 58.6605 30.0479C58.5663 28.7126 57.4208 27.6489 55.9827 27.5614C55.8889 27.5557 55.7778 27.5557 55.5556 27.5557Z" stroke="#F0532D" stroke-width="2.5"/>
<path d="M55.9055 27.5555C55.6981 22.5627 55.0296 19.5015 52.8745 17.3464C49.7503 14.2222 44.722 14.2222 34.6654 14.2222H26.6654C16.6087 14.2222 11.5804 14.2222 8.45622 17.3464C5.33203 20.4706 5.33203 25.4989 5.33203 35.5555C5.33203 45.6121 5.33203 50.6404 8.45623 53.7646C11.5804 56.8888 16.6087 56.8888 26.6654 56.8888H34.6654C44.722 56.8888 49.7503 56.8888 52.8745 53.7646C55.0296 51.6095 55.6981 48.5483 55.9055 43.5555" stroke="#F0532D" stroke-width="2.5"/>
<path d="M16 14.2222L25.9613 7.61719C28.7665 5.75716 32.5668 5.75716 35.372 7.61719L45.3333 14.2222" stroke="#F0532D" stroke-width="2.5" stroke-linecap="round"/>
<path d="M47.9767 35.5557H48.0007" stroke="#F0532D" stroke-width="2.5" stroke-linecap="round" stroke-linejoin="round"/>
</svg>
