<svg width="56" height="56" viewBox="0 0 56 56" fill="none" xmlns="http://www.w3.org/2000/svg">
<path d="M17.332 27.9999L16.082 27.9999L17.332 27.9999ZM38.6654 27.9999H39.9154H38.6654ZM27.9987 38.6666V39.9166V38.6666ZM27.9987 22.6666L27.9987 23.9166L27.9987 22.6666ZM33.5171 54.0949L33.7745 55.3181L33.5171 54.0949ZM22.4803 54.0949L22.2229 55.3181L22.4803 54.0949ZM3.30166 17.9231L2.14446 17.4505L3.30166 17.9231ZM1.90372 33.5183L0.680503 33.7757L1.90372 33.5183ZM22.4803 1.90494L22.2229 0.681725L22.4803 1.90494ZM33.5171 1.90494L33.7745 0.681727L33.5171 1.90494ZM52.4809 18.0193L52.8437 19.2155L52.4809 18.0193ZM3.51328 18.0184L3.87611 16.8222L3.51328 18.0184ZM52.6987 17.9304L51.5414 18.4027C52.7491 21.3623 53.4154 24.6017 53.4154 27.9999H54.6654H55.9154C55.9154 24.2723 55.1841 20.7124 53.8561 17.4581L52.6987 17.9304ZM54.6654 27.9999H53.4154C53.4154 29.8049 53.2274 31.5646 52.8705 33.2609L54.0937 33.5183L55.3169 33.7757C55.7092 31.9111 55.9154 29.9789 55.9154 27.9999H54.6654ZM54.0937 33.5183L52.8705 33.2609C50.8054 43.0751 43.0739 50.8066 33.2597 52.8717L33.5171 54.0949L33.7745 55.3181C44.5585 53.0489 53.0477 44.5597 55.3169 33.7757L54.0937 33.5183ZM33.5171 54.0949L33.2597 52.8717C31.5633 53.2286 29.8036 53.4166 27.9987 53.4166V54.6666V55.9166C29.9777 55.9166 31.9099 55.7105 33.7745 55.3181L33.5171 54.0949ZM27.9987 54.6666V53.4166C26.1938 53.4166 24.4341 53.2286 22.7377 52.8717L22.4803 54.0949L22.2229 55.3181C24.0875 55.7105 26.0197 55.9166 27.9987 55.9166V54.6666ZM1.33203 27.9999H2.58203C2.58203 24.5991 3.24929 21.3572 4.45885 18.3957L3.30166 17.9231L2.14446 17.4505C0.814434 20.7068 0.0820318 24.2694 0.0820318 27.9999H1.33203ZM22.4803 54.0949L22.7377 52.8717C12.9235 50.8066 5.19203 43.0751 3.12693 33.2609L1.90372 33.5183L0.680503 33.7757C2.94968 44.5597 11.4389 53.0489 22.2229 55.3181L22.4803 54.0949ZM1.90372 33.5183L3.12693 33.2609C2.76998 31.5645 2.58203 29.8049 2.58203 27.9999H1.33203H0.0820318C0.0820318 29.9789 0.288144 31.9111 0.680503 33.7757L1.90372 33.5183ZM3.30166 17.9231L4.45885 18.3957C7.60565 10.6913 14.4259 4.87712 22.7377 3.12815L22.4803 1.90494L22.2229 0.681725C13.0867 2.60416 5.60002 8.99002 2.14446 17.4505L3.30166 17.9231ZM22.4803 1.90494L22.7377 3.12815C24.4341 2.7712 26.1938 2.58325 27.9987 2.58325V1.33325V0.0832521C26.0197 0.0832521 24.0875 0.289364 22.2229 0.681725L22.4803 1.90494ZM27.9987 1.33325V2.58325C29.8036 2.58325 31.5633 2.7712 33.2597 3.12815L33.5171 1.90494L33.7745 0.681727C31.9099 0.289365 29.9777 0.0832521 27.9987 0.0832521V1.33325ZM33.5171 1.90494L33.2597 3.12815C41.574 4.87765 48.3958 10.6948 51.5414 18.4027L52.6987 17.9304L53.8561 17.4581C50.4019 8.99386 42.9134 2.60474 33.7745 0.681727L33.5171 1.90494ZM33.5171 1.90494L32.3263 2.28491C33.0641 4.59739 35.805 13.5183 36.9307 21.7351L38.1691 21.5654L39.4075 21.3957C38.2508 12.9523 35.4527 3.85898 34.708 1.52497L33.5171 1.90494ZM38.1691 21.5654L36.9307 21.7351C37.2328 23.9406 37.4154 26.0737 37.4154 27.9999L38.6654 27.9999H39.9154C39.9154 25.9258 39.7196 23.6736 39.4075 21.3957L38.1691 21.5654ZM52.4809 18.0193L52.1181 16.8231C49.1796 17.7144 43.6526 19.2823 37.9422 20.3362L38.1691 21.5654L38.396 22.7946C44.238 21.7164 49.8658 20.1187 52.8437 19.2155L52.4809 18.0193ZM38.1691 21.5654L37.9422 20.3362C34.4811 20.9749 30.9959 21.4166 27.9987 21.4166V22.6666L27.9987 23.9166C31.2118 23.9166 34.8647 23.4464 38.396 22.7946L38.1691 21.5654ZM38.6654 27.9999L37.4154 27.9999C37.4154 30.85 37.0159 34.1429 36.4267 37.4384L37.6572 37.6584L38.8877 37.8784C39.4897 34.5114 39.9154 31.0573 39.9154 27.9999H38.6654ZM37.6572 37.6584L36.4267 37.4384C35.1348 44.664 32.9672 51.7061 32.3263 53.7149L33.5171 54.0949L34.708 54.4749C35.3594 52.4333 37.5666 45.2673 38.8877 37.8784L37.6572 37.6584ZM54.0937 33.5183L53.7137 32.3275C51.7049 32.9684 44.6627 35.136 37.4372 36.4279L37.6572 37.6584L37.8772 38.8889C45.2661 37.5678 52.4321 35.3606 54.4736 34.7092L54.0937 33.5183ZM37.6572 37.6584L37.4372 36.4279C34.1416 37.0172 30.8488 37.4166 27.9987 37.4166L27.9987 38.6666V39.9166C31.0561 39.9166 34.5102 39.4909 37.8772 38.8889L37.6572 37.6584ZM27.9987 38.6666L27.9987 37.4166C25.1486 37.4166 21.8558 37.0172 18.5602 36.4279L18.3402 37.6584L18.1202 38.8889C21.4872 39.4909 24.9413 39.9166 27.9987 39.9166V38.6666ZM18.3402 37.6584L18.5602 36.4279C11.3347 35.136 4.29247 32.9684 2.28369 32.3275L1.90372 33.5183L1.52374 34.7092C3.56533 35.3606 10.7313 37.5678 18.1202 38.8889L18.3402 37.6584ZM17.332 27.9999L16.082 27.9999C16.082 31.0573 16.5077 34.5114 17.1097 37.8784L18.3402 37.6584L19.5707 37.4384C18.9815 34.1428 18.582 30.85 18.582 27.9999H17.332ZM18.3402 37.6584L17.1097 37.8784C18.4308 45.2673 20.638 52.4333 21.2894 54.4749L22.4803 54.0949L23.6711 53.7149C23.0302 51.7061 20.8626 44.664 19.5707 37.4384L18.3402 37.6584ZM22.4803 1.90494L21.2894 1.52496C20.5447 3.85897 17.7466 12.9523 16.5899 21.3957L17.8283 21.5654L19.0667 21.7351C20.1924 13.5183 22.9333 4.59739 23.6711 2.28491L22.4803 1.90494ZM17.8283 21.5654L16.5899 21.3957C16.2778 23.6736 16.082 25.9258 16.082 27.9999L17.332 27.9999H18.582C18.582 26.0737 18.7646 23.9406 19.0667 21.7351L17.8283 21.5654ZM27.9987 22.6666V21.4166C25.0015 21.4166 21.5163 20.9749 18.0552 20.3362L17.8283 21.5654L17.6014 22.7946C21.1327 23.4464 24.7856 23.9166 27.9987 23.9166L27.9987 22.6666ZM17.8283 21.5654L18.0552 20.3362C12.3428 19.2819 6.8138 17.7133 3.87611 16.8222L3.51328 18.0184L3.15044 19.2145C6.12761 20.1176 11.7573 21.7161 17.6014 22.7946L17.8283 21.5654ZM52.6987 17.9304L52.1227 16.821C52.1212 16.8218 52.1202 16.8223 52.1197 16.8225C52.1191 16.8228 52.1188 16.8229 52.1188 16.8229C52.1187 16.8229 52.1187 16.8229 52.1187 16.8229C52.1187 16.8229 52.1187 16.8229 52.1187 16.8229C52.1187 16.8229 52.1187 16.8229 52.1187 16.8229C52.1187 16.823 52.1186 16.823 52.1186 16.823C52.1185 16.823 52.1183 16.8231 52.1181 16.8231L52.4809 18.0193L52.8437 19.2155C52.9955 19.1695 53.1384 19.1106 53.2747 19.0398L52.6987 17.9304ZM3.30166 17.9231L2.6495 18.9895C2.80409 19.084 2.97088 19.1601 3.15044 19.2145L3.51328 18.0184L3.87611 16.8222C3.90578 16.8312 3.93285 16.8439 3.95381 16.8567L3.30166 17.9231Z" fill="#F0532D"/>
</svg>
